<svg xmlns="http://www.w3.org/2000/svg" viewBox="0 0 2509.07 1173.26"><defs><style>.cls-1{fill:#fbb03b;}.cls-2{fill:#f7931e;}.cls-3{fill:#e8c96e;}.cls-4{fill:#534741;}.cls-5{fill:#736357;}.cls-6{fill:#998675;}</style></defs><g id="head"><polygon class="cls-1" points="504.48 846.14 431.25 846.14 442.38 450.6 493.35 450.6 504.48 846.14"/><polygon class="cls-1" points="607.19 846.14 533.96 846.14 545.09 450.6 596.06 450.6 607.19 846.14"/><polygon class="cls-1" points="705.47 846.14 632.24 846.14 643.37 450.6 694.34 450.6 705.47 846.14"/><polygon class="cls-1" points="809.77 846.14 736.53 846.14 747.67 450.6 798.63 450.6 809.77 846.14"/><polygon class="cls-1" points="886.91 846.14 813.68 846.14 824.82 450.6 875.78 450.6 886.91 846.14"/><polygon class="cls-1" points="987.49 846.14 914.26 846.14 925.39 450.6 976.36 450.6 987.49 846.14"/><polygon class="cls-1" points="1082.23 846.14 1009 846.14 1020.13 450.6 1071.1 450.6 1082.23 846.14"/><polygon class="cls-1" points="1175.46 846.14 1102.23 846.14 1113.36 450.6 1164.33 450.6 1175.46 846.14"/><polygon class="cls-2" points="258.17 745.99 184.94 745.99 196.07 350.45 247.03 350.45 258.17 745.99"/><polygon class="cls-1" points="302.06 846.14 228.82 846.14 239.96 450.6 290.92 450.6 302.06 846.14"/><polygon class="cls-1" points="398.63 846.14 325.4 846.14 336.53 450.6 387.5 450.6 398.63 846.14"/><polygon class="cls-3" points="341.15 950.95 278.92 950.95 288.38 555.41 331.69 555.41 341.15 950.95"/><polygon class="cls-3" points="412.11 950.95 349.88 950.95 359.34 555.41 402.65 555.41 412.11 950.95"/><polygon class="cls-3" points="480.07 950.95 417.84 950.95 427.3 555.41 470.61 555.41 480.07 950.95"/><polygon class="cls-3" points="566.5 950.95 504.27 950.95 513.73 555.41 557.04 555.41 566.5 950.95"/><polygon class="cls-3" points="645.46 950.95 583.23 950.95 592.69 555.41 636 555.41 645.46 950.95"/><polygon class="cls-3" points="722.42 950.95 660.19 950.95 669.65 555.41 712.96 555.41 722.42 950.95"/><polygon class="cls-3" points="810.33 950.95 748.1 950.95 757.56 555.41 800.87 555.41 810.33 950.95"/><polygon class="cls-3" points="899.29 950.95 837.06 950.95 846.52 555.41 889.83 555.41 899.29 950.95"/><polygon class="cls-3" points="996.25 950.95 934.02 950.95 943.48 555.41 986.79 555.41 996.25 950.95"/><polygon class="cls-3" points="1105.68 950.95 1043.45 950.95 1052.91 555.41 1096.22 555.41 1105.68 950.95"/><polygon class="cls-3" points="1194.64 950.95 1132.41 950.95 1141.87 555.41 1185.18 555.41 1194.64 950.95"/><polygon class="cls-4" points="1216.11 527.33 322.76 527.33 179.37 276.11 617.21 174.11 1043.63 234.11 1216.11 527.33"/><polygon class="cls-5" points="1216.11 617.77 322.76 617.77 322.76 524.33 1216.11 527.33 1216.11 617.77"/><polygon class="cls-6" points="323.3 522.58 322.56 616.89 176.45 355.16 178.86 272.11 323.3 522.58"/></g></svg>