<svg xmlns="http://www.w3.org/2000/svg" viewBox="0 0 2509.07 1173.26"><defs><style>.cls-1{fill:#fbb03b;}.cls-2{fill:#f7931e;}.cls-3{fill:#fbca76;}.cls-4{fill:#e8c96e;}.cls-5{fill:#534741;}.cls-6{fill:#736357;}.cls-7{fill:#998675;}</style></defs><g id="head"><polygon class="cls-1" points="438.77 793.77 365.54 793.77 376.67 440.02 427.63 440.02 438.77 793.77"/><polygon class="cls-1" points="525.48 793.77 452.25 793.77 463.38 440.02 514.35 440.02 525.48 793.77"/><polygon class="cls-1" points="607.19 793.77 533.96 793.77 545.09 440.02 596.06 440.02 607.19 793.77"/><polygon class="cls-1" points="705.47 793.77 632.24 793.77 643.37 440.02 694.34 440.02 705.47 793.77"/><polygon class="cls-1" points="768.41 793.77 695.18 793.77 706.31 440.02 757.28 440.02 768.41 793.77"/><polygon class="cls-1" points="829.77 793.77 756.53 793.77 767.67 440.02 818.63 440.02 829.77 793.77"/><polygon class="cls-1" points="910.91 793.77 837.68 793.77 848.82 440.02 899.78 440.02 910.91 793.77"/><polygon class="cls-1" points="1004.49 793.77 931.26 793.77 942.39 440.02 993.36 440.02 1004.49 793.77"/><polygon class="cls-1" points="1080.23 793.77 1007 793.77 1018.13 440.02 1069.1 440.02 1080.23 793.77"/><polygon class="cls-1" points="1153.46 793.77 1080.23 793.77 1091.36 440.02 1142.33 440.02 1153.46 793.77"/><polygon class="cls-2" points="258.17 704.2 184.94 704.2 196.07 350.45 247.03 350.45 258.17 704.2"/><polygon class="cls-1" points="292.06 793.77 218.82 793.77 229.96 440.02 280.92 440.02 292.06 793.77"/><polygon class="cls-1" points="378.63 793.77 305.4 793.77 316.53 440.02 367.5 440.02 378.63 793.77"/><polygon class="cls-3" points="342.01 893.51 268.78 893.51 279.92 539.76 330.88 539.76 342.01 893.51"/><polygon class="cls-3" points="1161.94 893.51 1088.7 893.51 1099.84 539.76 1150.8 539.76 1161.94 893.51"/><polygon class="cls-3" points="1080.23 893.51 1007 893.51 1018.13 539.76 1069.1 539.76 1080.23 893.51"/><polygon class="cls-3" points="1028.66 893.51 955.43 893.51 966.57 539.76 1017.53 539.76 1028.66 893.51"/><polygon class="cls-3" points="947.53 893.51 874.3 893.51 885.43 539.76 936.4 539.76 947.53 893.51"/><polygon class="cls-3" points="786.04 893.51 712.81 893.51 723.94 539.76 774.91 539.76 786.04 893.51"/><polygon class="cls-3" points="866.61 893.51 793.38 893.51 804.51 539.76 855.48 539.76 866.61 893.51"/><polygon class="cls-3" points="705.47 893.51 632.24 893.51 643.37 539.76 694.34 539.76 705.47 893.51"/><polygon class="cls-3" points="556.53 893.51 483.3 893.51 494.44 539.76 545.4 539.76 556.53 893.51"/><polygon class="cls-3" points="415.25 893.51 342.01 893.51 353.15 539.76 404.11 539.76 415.25 893.51"/><polygon class="cls-4" points="402.15 937.5 328.92 937.5 340.05 583.76 391.02 583.76 402.15 937.5"/><polygon class="cls-4" points="483.3 937.5 410.07 937.5 421.2 583.76 472.17 583.76 483.3 937.5"/><polygon class="cls-4" points="562.1 937.5 488.87 937.5 500 583.76 550.97 583.76 562.1 937.5"/><polygon class="cls-4" points="643.81 937.5 570.58 937.5 581.71 583.76 632.67 583.76 643.81 937.5"/><polygon class="cls-4" points="724.96 937.5 651.72 937.5 662.86 583.76 713.82 583.76 724.96 937.5"/><polygon class="cls-4" points="803.75 937.5 730.52 937.5 741.66 583.76 792.62 583.76 803.75 937.5"/><polygon class="cls-4" points="883.67 937.5 810.43 937.5 821.57 583.76 872.53 583.76 883.67 937.5"/><polygon class="cls-4" points="964.81 937.5 891.58 937.5 902.72 583.76 953.68 583.76 964.81 937.5"/><polygon class="cls-4" points="1043.61 937.5 970.38 937.5 981.51 583.76 1032.48 583.76 1043.61 937.5"/><polygon class="cls-4" points="1125.32 937.5 1052.09 937.5 1063.22 583.76 1114.19 583.76 1125.32 937.5"/><polygon class="cls-4" points="1206.47 937.5 1133.24 937.5 1144.37 583.76 1195.34 583.76 1206.47 937.5"/><polygon class="cls-5" points="1216.11 527.33 322.76 527.33 179.37 276.11 577.21 174.11 1043.63 214.11 1216.11 527.33"/><rect class="cls-6" x="322.76" y="527.33" width="893.35" height="90.45"/><polygon class="cls-7" points="323.3 531.58 322.56 616.89 176.45 355.16 178.86 272.11 323.3 531.58"/></g></svg>