<svg xmlns="http://www.w3.org/2000/svg" viewBox="0 0 2509.07 1173.26"><defs><style>.cls-1{fill:#534741;}.cls-2{fill:#736357;}.cls-3{fill:#abd7ce;}.cls-4{fill:#fff;}</style></defs><g id="head"><polygon class="cls-1" points="1354.49 532.93 351.24 532.93 533.58 255.88 1172.15 255.88 1354.49 532.93"/><rect class="cls-2" x="351.24" y="532.93" width="1003.26" height="80"/><rect class="cls-3" x="406" y="612.93" width="900.49" height="368"/><rect class="cls-4" x="458.66" y="614.25" width="29.17" height="368"/><rect class="cls-4" x="1164.32" y="614.25" width="29.17" height="368"/><rect class="cls-4" x="518.06" y="614.25" width="29.17" height="368"/><rect class="cls-4" x="576.79" y="614.25" width="29.17" height="368"/><rect class="cls-4" x="1223.49" y="614.25" width="29.17" height="368"/><rect class="cls-4" x="632.44" y="614.25" width="29.17" height="368"/><rect class="cls-4" x="691.84" y="614.25" width="29.17" height="368"/><rect class="cls-4" x="750.57" y="614.25" width="29.17" height="368"/><rect class="cls-4" x="808.58" y="612.93" width="29.17" height="368"/><rect class="cls-4" x="867.98" y="612.93" width="29.17" height="368"/><rect class="cls-4" x="926.71" y="612.93" width="29.17" height="368"/><rect class="cls-4" x="988.25" y="612.93" width="29.17" height="368"/><rect class="cls-4" x="1047.66" y="612.93" width="29.17" height="368"/><rect class="cls-4" x="1106.39" y="612.93" width="29.17" height="368"/><path class="cls-1" d="M1014.42,351.26s827.74-96,865.07-133.33,293.33-122.09,250.67,27c-37.34,63.7-90,159.7-1130.32,191.7C999.84,436.59,824.59,404.29,1014.42,351.26Z"/></g></svg>