<svg xmlns="http://www.w3.org/2000/svg" xmlns:xlink="http://www.w3.org/1999/xlink" viewBox="0 0 1265.78 1187.4"><defs><style>.cls-1{fill:url(#radial-gradient);}.cls-2{fill:#e55e8f;}.cls-3{fill:#c64e7f;}</style><radialGradient id="radial-gradient" cx="-793.67" cy="3252.24" r="401.4" gradientTransform="translate(-340.63 -2539.85) rotate(-32.07)" gradientUnits="userSpaceOnUse"><stop offset="0" stop-color="#ffdc78"/><stop offset="1" stop-color="#ffbf4b"/></radialGradient></defs><g id="head"><path class="cls-1" d="M785.56,681.85c57,46.47,112.79-105.74,187.72-35.66,38.14,35.67-84.12,59.11-116.46,96.32,39.79,1.24,85.6-10.58,123.23-1.82,25.68,6,54.54,24.25,47.67,53.81-23.05,99.1-250.07,65.41-151.55,88.33,39.91,9.28,80.68,14.84,120.59,24.12,15,3.49,33.15,5.67,30.24,18.18-11.12,47.8-224,12.69-229.54,12,4.54,4.73,312.56,211.61,87.78,159.32C759.77,1067.31,634.5,849.16,581.19,777c-75-101.48-305.5-334.48-268-495.78,5.7-24.48,71.84-68.67,173.64-42C714.25,298.77,702.81,614.43,785.56,681.85Z"/><path class="cls-2" d="M812.77,682.53C790.29,700.58,687,726.93,664.84,800.08s27.1,135.66,25,133.18-52.15-20.77-87.69-29.18-66.11-18.6-49.3-37.28,6.64-35.62-16.92-43.48-84.76-14.69-70.19-58.39,8.21-60.09-46.55-153.74S312.94,499.61,361.52,461.72s276.12-80.43,302.33-64.92c36.75,21.74,74.62,176,73.82,184.79-2.86,31.86,80.93,33.26,59.79,47S812.77,682.53,812.77,682.53Z"/><path class="cls-3" d="M555.69,749.59c-14.45,11.17-37.68,40.08-58.87,62.35,14.22,5.25,29.7,8.24,39.13,11.38,23.56,7.86,33.73,24.81,16.92,43.48,0,0,18.72,16,28.46-46.53s101.9-133,130.79-145.57S581.59,729.55,555.69,749.59Z"/><path class="cls-3" d="M614.62,626.42l-1.36.28Z"/><path class="cls-3" d="M614.62,626.42c12.74-2.63,111.14-22.59,124-14.26A165.23,165.23,0,0,0,760,606.44c-12.79-5.6-23.38-13.18-22.33-24.85C692.79,609.17,625,624.21,614.62,626.42Z"/></g></svg>