<svg xmlns="http://www.w3.org/2000/svg" xmlns:xlink="http://www.w3.org/1999/xlink" viewBox="0 0 1394.16 1391.31"><defs><style>.cls-1{fill:url(#radial-gradient);}.cls-2{fill:url(#radial-gradient-2);}</style><radialGradient id="radial-gradient" cx="-6304.58" cy="1017.46" fx="-6345.789078585976" fy="994.2050186017973" r="334.24" gradientTransform="matrix(-1, 0, 0, 0.76, -5735.02, 240.66)" gradientUnits="userSpaceOnUse"><stop offset="0" stop-color="#ffdc78"/><stop offset="1" stop-color="#ffa03d"/></radialGradient><radialGradient id="radial-gradient-2" cx="-6494.78" cy="481.88" fx="-6494.783952966136" fy="481.8825727270032" r="314.94" gradientTransform="matrix(-1, 0, 0, 1, -5735.02, 0)" xlink:href="#radial-gradient"/></defs><g id="head"><path class="cls-1" d="M822.44,829.42C647.13,822.76,347.6,855.17,275.56,978.3c-58,11.26-139.06,49.85-139.06,84,0,17.09,24.39,35.86,55.84,35.86,23.25,0,53.38-10.83,81.94-25.35,1.79,2.16,3.71,4.31,5.72,6.44-44.19,17.36-84.64,43.69-84.64,67.77,0,17.1,24.4,35.87,55.84,35.87,33.59,0,81.52-22.62,118.33-46.29q8.57,3.63,17.63,7c-41.38,17.31-77.65,42.13-77.65,64.94,0,17.09,24.39,35.86,55.83,35.86,44.52,0,114.26-39.72,149.87-69q12,1.72,24.37,3.07c-22.18,14-37.59,29.67-37.59,44.53,0,17.1,24.4,35.87,55.84,35.87,58.31,0,415.28-190.9,420.34-324.33C981.31,852,906,832.59,822.44,829.42Z"/><path class="cls-2" d="M791.46,57.94C726.18,77.57,634.07,337,634.07,497.15c0,213.3,118.61,412,190,412,33.86,0,76.06-13.07,56.35-85.65-35-129-120-225.46-120-364.1,0-135.42,118.4-297.67,118.4-344C878.79,78.51,856.74,43.44,791.46,57.94Z"/></g></svg>