<svg xmlns="http://www.w3.org/2000/svg" xmlns:xlink="http://www.w3.org/1999/xlink" viewBox="0 0 2011.18 1989.71"><defs><style>.cls-1{fill:#ef8e9c;}.cls-2{fill:#f298a2;}.cls-3{fill:#a55660;opacity:0.78;}.cls-4{fill:url(#radial-gradient);}.cls-5{fill:#cc7182;}.cls-6{fill:url(#radial-gradient-2);}.cls-7{fill:url(#radial-gradient-3);}</style><radialGradient id="radial-gradient" cx="956.8" cy="1236.86" r="515.43" gradientUnits="userSpaceOnUse"><stop offset="0" stop-color="#ffdc78"/><stop offset="1" stop-color="#ffbf4b"/></radialGradient><radialGradient id="radial-gradient-2" cx="1471.15" cy="880.74" r="309.6" xlink:href="#radial-gradient"/><radialGradient id="radial-gradient-3" cx="554.03" cy="792.45" r="310" xlink:href="#radial-gradient"/></defs><g id="head"><path class="cls-1" d="M785.89,583.64a170.09,170.09,0,0,1-10.1-20.3,168.28,168.28,0,0,1-10.4-39.4,160.19,160.19,0,0,1-.45-39.16c.76-5.28,1.48-9.68,2.07-12.78s1.17-4.92,1.22-5.11c.26-1.64,1.42-2.73,3.14-3.49,2.59-1.15,5.33-.47,6.67,1.77a8.12,8.12,0,0,1,1.44,4.66c-.36,2.89-.75,5.74-.87,8.65s-.63,5.73-.67,8.62a167.57,167.57,0,0,0,0,22.52c.4,6.19.87,12.47,2.63,18.43,2.94,8.92,4.48,18.29,9,26.56,2,4,4.23,7.83,6.19,11.8,2.32,3.76,4.21,7.79,7,11.27,6.66,9.5,14.07,18.47,22.78,26,2.58,2.53,5.89,4.17,8.61,6.48a92.51,92.51,0,0,0,11.35,8.39,69.3,69.3,0,0,0,15.71,6.64,49.17,49.17,0,0,0,12,2.1,48,48,0,0,0,12.17-.78c2.37-.4,4.62-1.43,7-2.05a85.08,85.08,0,0,0,9.42-2.94,96.68,96.68,0,0,0,13.31-7.28,6.81,6.81,0,0,0,1.11-1.16,99.05,99.05,0,0,1,11.73-9.72,205.33,205.33,0,0,0,20.54-18.11c.57-.58,2.45-2.39,5-5.22a65.57,65.57,0,0,0,8.36-11.33,34.24,34.24,0,0,0,3.25-7.43,24.82,24.82,0,0,0,1.22-8.15,16.16,16.16,0,0,0-1.58-7.29,10.84,10.84,0,0,0-3.81-4.6c-1.19-.62-2.17-.94-4.75-.37a28.77,28.77,0,0,0-7.92,3.65,40.52,40.52,0,0,0-11.8,12.93,83.69,83.69,0,0,0-8.14,18.86l-.41,1.51c-.47,1.78-1.63,3.47-.64,5.6.37.77-.21,1.68-.48,2.49s-.89,1.45-.07,2.51c.36.46,0,1.29-.35,1.82-2,2.94-3.87,5.92-3,9.6.28,1.06-.49,2.14-.52,3.24-.13,4.93-2,9.66-1.12,14.72.3,1.89-1,3.79-1.49,5.71a5.58,5.58,0,0,0-.42,2.28,20.41,20.41,0,0,1-.45,8.86c-1,4-.5,8.15-.62,12.23-.14,3.74,0,7.48,0,11.22a138.69,138.69,0,0,0,.29,15.12c.14,1.59.53,3.18.65,4.81.4,4.38,1.08,8.72,1.55,13.07.29,2.18.13,4.4.33,6.6.84,10.24,2.4,20.42,4.21,30.55.77,3.91,2,7.72,2.65,11.66,1.19,6.41,2.45,12.83,4.91,18.92,1.69,4.42,2.18,9.27,3.55,13.84,1.39,5.26,3.12,10.41,4.9,15.56,2.86,8.38-13.53,4.84-14.35,2.44a449.61,449.61,0,0,1-15.42-44.13c-6-21.08-9.59-43.13-9.85-47.49-1.22-11.14-1.56-22.34-1.87-33.52,0-7.68-.33-15.37.07-23.06.09-3.91.47-7.81.85-11.71s.69-7.79,1.14-11.68c.31-3.07.48-6.16.67-9.25l.85-9.26c.09-.92.33-1.82.5-2.73.2-1.13.55-2.24.73-3.37.28-1.72.47-3.46.7-5.19.09-.69.22-1.37.26-2.07,0-.47-.26-1-.06-1.41,1.79-3.69,2.64-7.79,3.49-11.87.21-.94.66-1.81.85-2.75,1.92-9,4.3-18.73,10.69-26.78a14,14,0,0,0,3-5,6.25,6.25,0,0,1,2.1-3c4.66-3.62,8.23-8.75,13.81-11.73a69.35,69.35,0,0,1,8.68-4,26.76,26.76,0,0,1,11-1.63c8.74.54,17.13,5,21.53,11.16a39.14,39.14,0,0,1,4.89,8.52,40,40,0,0,1,2.16,6.71,38.24,38.24,0,0,1,.9,7.59c.59,10.06-3.05,19.56-4.78,23.29a76.09,76.09,0,0,1-9.12,14.62c-8.07,10.45-17.32,18.66-26.42,26.42-11.36,9.56-23.7,18.81-38.4,25.38a87.78,87.78,0,0,1-9.1,3.28,78.08,78.08,0,0,1-18.28,3.36,72.52,72.52,0,0,1-24.55-2.61,91.2,91.2,0,0,1-23.88-11.14,146.47,146.47,0,0,1-34.56-31.63A241.43,241.43,0,0,1,785.89,583.64Z"/><path class="cls-1" d="M1236.24,697.74l-6.44,11.11c-3.69,5.23-8.11,12.34-14.2,19.67-11.77,15-28.57,32.06-46.36,47s-36.2,28.32-50.21,38-23.56,15.91-24.06,16.29a9.63,9.63,0,0,1-6.77,1.82c-3.62-.3-5.34-2.55-3.76-5.8a17.49,17.49,0,0,1,4.6-6c7.9-6.13,15.92-12.09,23.9-18.05,10.48-7.68,20.82-15.47,31-23.49l12.46-10.06c4-3.49,8-7,11.73-10.78,11.07-11.58,22.94-22.39,32.13-35.31,8.8-12.29,17.12-24.75,23.57-38.15a193.69,193.69,0,0,0,10.44-27.22l1.91-7a63.13,63.13,0,0,0,1.66-7,95.63,95.63,0,0,0,1.68-14,93.21,93.21,0,0,0-1.1-17.28c-1-7.44-2.68-14.68-6.05-20.86A37.51,37.51,0,0,0,1213.56,574c-11.76-5-26.53-3.67-40.22,1.18a110.17,110.17,0,0,0-11.59,5.36c-2.54,1.23-5.06,2.53-7.58,3.86a74.37,74.37,0,0,0-7,4.32,33.65,33.65,0,0,0-7.55,7.46c-1.9,2.61-2.35,4.82-2.25,6a1.77,1.77,0,0,0,.52.66,4.14,4.14,0,0,0,1.33,1.13,12.62,12.62,0,0,0,2,1.08,30.25,30.25,0,0,0,8.62,2,71.76,71.76,0,0,0,10.44.21l11.83-.46c7.84-.41,15.62-1,23.3-1.83a227.92,227.92,0,0,0,38.37-6.83,130.15,130.15,0,0,0,31.62-13.27,85.22,85.22,0,0,0,14.73-11c2.4-2,4.44-4.46,6.67-6.73,2-2.49,4.17-4.84,5.89-7.51a79.72,79.72,0,0,0,14.2-33.64c1.54-11.34.12-22.19-3.71-30.25-3.32-7.22-9.6-13.2-14.12-17.05a88.51,88.51,0,0,0-8.43-6.59l-2.14-1.51c-2.57-1.74-5-4-8.33-4.42-1.21-.16-2.49-1.35-3.72-2.12s-2.1-1.81-3.8-1.63c-.77.08-1.93-.82-2.66-1.51-4.14-3.71-8.32-7.47-14.26-8.53-1.69-.32-3.22-1.71-4.92-2.37-7.69-2.83-14.89-7.06-23.06-8.8-3.07-.62-5.86-2.89-8.84-4.27a15.28,15.28,0,0,0-3.6-1.48,65.13,65.13,0,0,1-14.1-4.66,88.13,88.13,0,0,0-13.27-4.28l3.4-19.22c2.36.15,4.74.28,7.07.5,6.63.76,13.13,1.59,19.5,2.66,8.61,1.4,17.07,3.18,25.57,4.38,2.7.37,5.47.49,8.21.91,7.36,1.16,14.76,2,22,2.83,3.67.49,7.25,1.3,10.89,1.78a201.34,201.34,0,0,0,25,1.81c2,0,3.89-.18,5.84-.24s3.57-.49,5.39-.68c1.65-.33,2.8-.93,4.28-1.26l4.41-2.31c4.6-3.11,8.88-7.33,13.26-11.79a126.27,126.27,0,0,0,19.2-25.22c4-6.75,8.85-13.11,13-19.94,4.79-7.76,9.34-15.72,13.9-23.79,7.42-13.07,12.13,7.77,10.21,11.15-1.36,2.33-5.92,11.44-12.73,23.8s-15.86,28-27.76,42.47c-6,7.17-12.71,14.18-21.17,19.43l-3.27,1.84a15.81,15.81,0,0,1-3.46,1.57c-2.41.78-5,1.95-7.16,2.16a90.91,90.91,0,0,1-12.59,1.49,205.83,205.83,0,0,1-29.86-1.34c-18.45-2.26-36.41-5.72-54.3-8.82-12.22-2.1-24.62-4-36.26-5l-.49-.05,3-16.79c12.34,3.61,24.26,8,36.21,12.45,9.56,3.51,19.17,7,28.66,10.89,1.41.59,2.75,1.36,4.12,2.05,1.7.86,3.38,1.78,5.11,2.58l7.89,3.68c1,.49,2.07,1,3.14,1.47a8.72,8.72,0,0,1,2.17.81,74.91,74.91,0,0,0,8.37,5.76c2.84,1.88,5.78,3.62,8.73,5.36,1.34.83,2.52,1.95,3.85,2.8l4.84,3.12c1.6,1.1,3.16,2.31,4.74,3.47a78.68,78.68,0,0,1,9.16,7.78,33.75,33.75,0,0,1,4.24,4.63,59.44,59.44,0,0,1,3.92,5.14q1.69,3,3.23,6.05c1.14,2.05,1.46,4,2.16,6.08,1,3.13,1.57,6.11,3,9.08a12,12,0,0,1,1.25,5.79c0,9.39,1.15,18.73-1.1,27.74s-5,17.83-9.55,25.66c-4.8,8.13-9.62,16.19-16.08,23.07a112.39,112.39,0,0,1-24.72,20.43,149.88,149.88,0,0,1-30.56,14.18,195.19,195.19,0,0,1-25.09,6.32c-20,3.84-39.88,5.11-59.42,5.84-2.86.12-6.39.24-9.79.09a67.16,67.16,0,0,1-10.75-1.26,40.91,40.91,0,0,1-11.74-4.24,28.39,28.39,0,0,1-10.82-10.52,27,27,0,0,1-3.55-15.35,32,32,0,0,1,4.33-13.53c4.37-7.4,9.82-12.32,15.51-16.57a119.88,119.88,0,0,1,13.5-8.15,118.25,118.25,0,0,1,27.58-10.3c11.4-2.61,25.64-3.83,40.33.79,14.74,4.33,28,16.11,34.79,30.12,6.94,14,8.76,29,8.25,42.41a123.52,123.52,0,0,1-2.24,19.31,164.16,164.16,0,0,1-4.52,16.75,126.33,126.33,0,0,1-5,14q-1.25,3.17-2.37,6-1.32,2.73-2.47,5.08C1239.28,692,1237.21,696.23,1236.24,697.74Z"/><path class="cls-1" d="M853.42,427.57c.37,1-.51,5.45,4.78,10.55a33.75,33.75,0,0,0,12.58,7.06,61.24,61.24,0,0,0,18.08,3,37.42,37.42,0,0,0,16.31-3.09,22.07,22.07,0,0,0,5.65-3.67,21.46,21.46,0,0,0,3.89-4.66,19.21,19.21,0,0,0,2.91-8.3,10,10,0,0,0-.09-3.23c-.34-.92.79-2,2.51-3.65,2.66-2.51,6.14-5.13,9.61-3.84,2.32.81,4.56,2.67,5.11,4.82,2.38,8.69.54,17.81-3.64,25.12A38.78,38.78,0,0,1,920,460,49.72,49.72,0,0,1,905.62,467c-8.31,2.46-16.54,2.07-24.45,2.46a50.85,50.85,0,0,1-18-2.71,90.9,90.9,0,0,1-17.73-8,35.47,35.47,0,0,1-14.25-15.56A40.32,40.32,0,0,1,828,420.9c1.53-10,6.66-18.15,12.33-24.38a80.22,80.22,0,0,1,19.24-14.9c4.3-2.53,8.64-5.14,13.47-6.82,1.61-.49,3.3-1,4.87-1.35l4.55-.83c3-.59,6-1.05,9.08-1.51a168.5,168.5,0,0,1,23.06-2.95,165.86,165.86,0,0,1,35,2.72c1.67.3,3.37.46,5.08.64a44.81,44.81,0,0,1,5,1c4.38,1.08,8.45,3.16,12.69,4.58l9.33,3.54,9.18,4a11,11,0,0,0,2,.43c6.59,1.39,12.37,4.74,17.83,8.48a175.32,175.32,0,0,1,27,22.58A171,171,0,0,1,1056,439.37a240.42,240.42,0,0,1,24.74,49.68c3,9.41,6.51,18.58,8.38,27.6,1.08,4.46,2.12,8.78,3.12,12.89.7,4.16,1.36,8.1,2,11.76s1.26,7,1.59,10,.55,5.72.77,8c.44,4.51.72,7.31.81,7.85l.25,1.89c.43,2.24-.72,4.59,1.65,6.67.84.75.35,2,.27,3.06s-.71,2,.83,2.9c.69.42.44,1.48.11,2.19-1.91,4-3.5,7.72-1.4,11.77.64,1.17-.29,2.56-.11,3.83.68,5.76-.64,11.46.79,17.32.58,2.21-1.2,4.48-1.85,6.71a5.25,5.25,0,0,0-.47,2.67,16.62,16.62,0,0,1-.77,10.33c-1.69,4.52-1.58,9.4-2.25,14.14a122.83,122.83,0,0,1-2.4,12.89c-1.38,5.74-2.85,11.45-4.36,17.14-.42,1.83-.45,3.79-1,5.64-1.43,5-2.23,10.11-4.07,15-.85,2.45-2.34,4.66-3.33,7-1.19,2.78-2.24,5.62-3.55,8.35l-4,8.13c-2.65,5.44-5.27,10.87-8.44,16-2.34,4-4.11,8.46-6.77,12.32a157.75,157.75,0,0,0-13,19c-3,4.74-7.52,8.33-11.24,12.45-4.36,4.62-9.07,8.93-13.5,13.41-3.65,3.61-7.34-.34-10-5.3s-4.36-10.85-3.48-11.69c2.37-2.34,16.83-19.35,27.27-39.17,2.84-4.8,5-10,7.47-14.69s4.26-9.43,6-13.57,3.3-7.71,4.29-10.62,1.73-5,2.14-6a248.87,248.87,0,0,0,10.87-32.1c1.7-7.59,3.36-15.19,4.32-22.9.61-3.9,1.38-7.78,2.06-11.67.45-3.93.87-7.86,1.14-11.8.61-6.22-.24-12.49-.6-18.69a18.56,18.56,0,0,1,.19-2.78c.08-1.15.27-2.3.25-3.45a44,44,0,0,0-.62-5.22,20.5,20.5,0,0,0-.32-2.06c-.11-.46-.72-.93-.56-1.35,1.44-4.06,1.07-8.12.48-12.12-.19-.92,0-1.87-.23-2.77-1.05-4.4-2.31-8.73-3.23-13.08s-2.08-8.64-2.05-13.18c0-1.77-.17-3.4-1.62-4.81a3.55,3.55,0,0,1-1-3c.44-5.19-3.13-9.36-4.12-14.16-.26-1.22-.57-2.43-.94-3.61l-1.38-3.46a45.2,45.2,0,0,1-2.35-7.05,36.38,36.38,0,0,0-2.67-7.27c-1.2-2.29-2.4-4.58-3.36-7a142.22,142.22,0,0,0-7.83-15.63c-3.69-6.58-8-12.92-9.93-15.72-2.71-4-5.36-8-8.34-11.67a123.73,123.73,0,0,0-60.07-41.25,165.12,165.12,0,0,0-22.41-6.37,132.34,132.34,0,0,0-42.23-1.61c-3.77.32-7.55,1.25-11.1,1.87a59.21,59.21,0,0,0-9.31,2.94,52.45,52.45,0,0,0-14.72,9.08,23.25,23.25,0,0,0-6.41,8.48A12.19,12.19,0,0,0,853.42,427.57Z"/><path class="cls-2" d="M539.63,1412.89C596.56,1387.61,687,1355.1,687,1283.49c0-75-86.72-174.51-220.23-174.51-57.44,0-88.5,2.4-88.5,82.63,0,108.52,119.07,223,152.68,223A21.21,21.21,0,0,0,539.63,1412.89Z"/><path class="cls-3" d="M539.63,1317.05a21.2,21.2,0,0,1-8.67,1.74c-28.8,0-120.27-84.07-145.9-176.41-4.48,11.81-6.78,27.82-6.78,49.58,0,108.53,119.07,223,152.68,223a21.21,21.21,0,0,0,8.67-1.75C596.56,1388,687,1355.45,687,1283.85c0-16.87-4.41-35-12.72-52.89C647.4,1273.71,583.55,1297.54,539.63,1317.05Z"/><path class="cls-4" d="M435,1168.6c-65.83,130.67,95.18,562.48,600.89,562.48,58.81,0,238.22-82.54,293.58-134.45,115.55-108.33,168.72-210.29,162.66-354.84-14.5-346-338.89-550.6-669.33-487.91C626.57,791.1,516.36,1007.11,435,1168.6Z"/><path class="cls-5" d="M417.2,1234.62l-5.49.81-9,1.79c-3.46.74-7.33,1.42-11.33,2.39L379,1242.69c-8.33,2.07-16.42,4.71-22.9,6.55l-12.58,4.26-5.67,1.81-8.26,2.93c-5.7,2-11.15,3.93-12.14,4.52l-16.77,6.43c-8.36,3.62-17.49,7.3-20.16,8.84l-13.48,6.4c-7.4,3.89-17.31,8.74-26.9,14.55-4.87,2.79-9.76,5.65-14.26,8.66s-9,5.64-12.71,8.37c-7.48,5.42-13.29,9.46-15,11.19-1.3,1.17-4.17,3.48-7.84,6.37-1.82,1.46-3.9,3-6,4.72l-6.37,5.45c-8.82,7.18-16.85,15.39-19.69,18.08-1.84,1.87-6.83-3.1-5.37-4.72,6.17-6.88,12.31-13.9,19.38-19.9,2.68-2.35,6.79-6.28,11.91-10.39s10.68-9,16.37-13.22c11.05-8.77,21.65-15.59,22.4-16.33,3.78-3,7.84-5.49,11.76-8.25s7.89-5.48,12-8l11.46-7c5.39-3.16,10.9-6.1,16.36-9.16s11.12-5.7,16.67-8.6c5.16-2.77,10.54-5.08,15.81-7.67s10.67-4.86,16.12-7c15.93-6.53,32.42-11.63,49-16.38l14.25-3.83c4.75-1.3,9.6-2.23,14.41-3.28,5.67-1.27,11.5-1.68,17.26-2.46,4.24-.59,7.28,2.29,9.74,6.12C430.54,1226.13,420.23,1234.23,417.2,1234.62Z"/><path class="cls-5" d="M404.63,1263.13c-2.49,1.09-8.58,3.94-16.34,7.84s-17.24,8.67-26.53,13.62-18.31,10.13-25.55,14.09l-14,8.29c-5,2.7-26.63,15.87-28.87,17.55l-18.46,11.77c-9.11,6.32-19.11,12.91-22,15.36l-14.54,10.84c-7.89,6.42-18.5,14.59-28.5,23.83l-7.63,6.8c-2.42,2.38-4.81,4.74-7.16,7-4.63,4.66-9.28,8.91-12.94,13.17-7.53,8.31-13.34,14.63-14.95,17.16-2.39,3.51-11.5,13.72-19.39,25l-6.06,8.24c-1.87,2.74-3.55,5.44-5.13,7.87-3.12,4.89-5.62,8.83-6.89,10.83-1.66,2.73-7.64-1-6.36-3.3,5.49-9.76,10.71-19.79,17.47-28.78,4.84-7.14,16.08-22.43,27.22-35.4,10.92-13.19,21.81-23.89,22.57-24.9,3.8-4.41,8-8.43,12.07-12.57s8.1-8.36,12.46-12.19l12.06-11c5.68-5,11.6-9.7,17.39-14.57s12-9.28,17.89-14c11.31-8.49,22.62-17,34.52-24.7,17.33-11.45,35.38-21.69,53.5-31.73,10.38-5.64,20.69-11.41,31.29-16.61,6.21-3.16,12.72-5.65,19.06-8.51,4.66-2.11,8.86-.42,12.71,2.37C418,1249.86,408.12,1261.58,404.63,1263.13Z"/><path class="cls-5" d="M385.71,1300.38l-5.49,3.91c-2.46,1.84-5.34,4.33-8.68,7s-7,5.72-10.82,9l-11.35,10.51c-3.9,3.46-7.52,7.2-10.91,10.76L329,1351.4l-10.67,12.15-4.85,5.38-6.83,8.21c-4.69,5.7-9.23,11.07-9.9,12.32l-13.39,17.34c-6.4,9.12-13.54,18.76-15.37,22.07l-10,15.28c-5.27,8.78-12.46,20.17-18.93,32.28-13.38,24-25.2,50-27.29,55.69-1.38,4.07-7.21,16.58-12.29,29.54-5.41,12.84-10.1,26.1-11.74,30.59-1,3-7.63.55-6.87-2,3.23-10.72,6.41-21.51,10.59-31.92,3.05-8,9.89-25.72,16.72-41.4,6.62-15.78,13.44-29.45,13.85-30.65,2.25-5.37,4.88-10.56,7.35-15.83s4.92-10.56,7.7-15.68l7.62-14.45c3.65-6.65,7.58-13.15,11.36-19.75s8.06-12.88,12-19.37c3.68-6.1,7.91-11.85,11.82-17.81s8.24-11.66,12.61-17.31c6.23-8.44,13.29-16.23,20.13-24.19,3.38-4,7.2-7.65,10.79-11.5s7.13-7.73,11.05-11.25l13.05-12.44c4.41-4.08,9.1-7.86,13.71-11.73,5.36-4.66,11.47-8.37,17.28-12.44,4.27-3,8.74-2.15,13-.08C396.29,1284.91,388.76,1298.28,385.71,1300.38Z"/><path class="cls-6" d="M1153,856.18c.68-5.45,157.85-298,342.39-275,138.54,17.29,314.77,181.26,291.82,365.1-21.59,172.94-296.5,237.77-316.92,235.22C1374.27,1169.52,1152.84,857.66,1153,856.18Z"/><path class="cls-7" d="M874.28,808.33c0-5.49-119.71-315.29-305.69-315.29C429,493,233.78,633.92,233.78,819.18c0,174.29,264.77,272.67,285.35,272.67C615.93,1091.85,874.28,809.82,874.28,808.33Z"/></g></svg>