<svg xmlns="http://www.w3.org/2000/svg" xmlns:xlink="http://www.w3.org/1999/xlink" viewBox="0 0 1234.89 1581.15"><defs><style>.cls-1{fill:url(#radial-gradient);}.cls-2{fill:#cc7533;}</style><radialGradient id="radial-gradient" cx="563.74" cy="781.43" r="597.56" gradientUnits="userSpaceOnUse"><stop offset="0" stop-color="#ffdc78"/><stop offset="1" stop-color="#ffa03d"/></radialGradient></defs><g id="head"><path class="cls-1" d="M323.81,134.81c-63.82,18.4-81.39,120.58-91,202.89-7.56,64.54-84.49,640.65-84.49,852.24,0,232.87,137.12,327.39,304.18,327.39,88.62,0,181.9-22,271.37-22,39.32,0,48.85,3.61,67.17,3.61,177.29,0,188.21-222.43,188.21-596.54C979.21,119.25,726.67,45.53,543,45.53c-9.52,0-18.9.19-28.06.51C446.57,48.42,395.12,114.23,323.81,134.81Z"/><path class="cls-2" d="M231.69,346.62c137.44,36.74,379.91,94.27,610.66-21.69q26.68-13.41,51.39-27.88C803.85,75.22,659.57,45.53,543,45.53c-9.52,0-18.9.19-28.06.51-68.4,2.38-119.85,68.19-191.17,88.77-63.81,18.4-81.38,120.58-91,202.89C232.5,340,232.14,343,231.69,346.62Z"/></g></svg>