<svg id="Layer_1" data-name="Layer 1" xmlns="http://www.w3.org/2000/svg" xmlns:xlink="http://www.w3.org/1999/xlink" viewBox="0 0 265.9 350.97"><defs><style>.cls-1{fill:none;}.cls-2{fill:#9f6442;}.cls-3{clip-path:url(#clip-path);}.cls-4,.cls-5{fill:#603913;}.cls-4{opacity:0.44;}.cls-6{fill:#a97c50;}.cls-7{fill:#ec98d1;}.cls-8{clip-path:url(#clip-path-2);}.cls-9{fill:#ec65d1;}</style><clipPath id="clip-path"><path class="cls-1" d="M188,74.09S106.18,167.91,166,275.17s-39.12,19.55-39.12,19.55-61.59-43.26-64.57-56.29,2.35-93,2.35-93L85.44,42Z"/></clipPath><clipPath id="clip-path-2"><path class="cls-1" d="M173.23,87.46S100.85,225.69,185.38,290.6C243.24,335,51.3,265.07,51.3,265.07S-8,198.93,18.8,173.41,98.2,85.22,98.2,85.22l60-6.33Z"/></clipPath></defs><path class="cls-2" d="M237.94,183.36A27.22,27.22,0,0,0,218,157.14a27.22,27.22,0,0,0-34-37,27.22,27.22,0,0,0-53-.74,27.22,27.22,0,0,0-34.4,37.82,27.21,27.21,0,0,0-2.84,51.32,27.22,27.22,0,0,0,38.23,35.81,27.22,27.22,0,0,0,50.36,1.11A27.21,27.21,0,0,0,220,208.94,27.23,27.23,0,0,0,237.94,183.36Z"/><g class="cls-3"><path class="cls-4" d="M238.16,183.09a27.22,27.22,0,0,0-19.91-26.21,27.22,27.22,0,0,0-34-37,27.22,27.22,0,0,0-53-.74,27.22,27.22,0,0,0-34.4,37.82A27.21,27.21,0,0,0,94,208.26a27.21,27.21,0,0,0,38.22,35.81,27.22,27.22,0,0,0,50.36,1.11,27.22,27.22,0,0,0,37.63-36.51A27.21,27.21,0,0,0,238.16,183.09Z"/></g><path class="cls-5" d="M124.7,119.15s-24.89-.75-28.44,22.19C96.26,141.34,103.37,126.16,124.7,119.15Z"/><path class="cls-5" d="M94.65,158.74S72.45,170,80.35,191.86C80.35,191.86,79.3,175.13,94.65,158.74Z"/><path class="cls-5" d="M93.91,210.32s-8.27,23.49,12.52,33.83C106.43,244.15,94.12,232.77,93.91,210.32Z"/><path class="cls-5" d="M134.47,244.9s6.71,18.22,24.34,14.11C158.81,259,145.76,258.29,134.47,244.9Z"/><path class="cls-5" d="M163.82,100.86s-24.64-3.56-30.77,18.83C133.05,119.69,141.84,105.41,163.82,100.86Z"/><path class="cls-6" d="M218.3,155.72s7.48-23.75-13.64-33.4C204.66,122.32,217.34,133.28,218.3,155.72Z"/><path class="cls-6" d="M232.83,198.1s12.59-21.49-5.85-35.6C227,162.5,236.9,176,232.83,198.1Z"/><path class="cls-6" d="M205.7,244.68s18.94-5.16,16.35-23.27C222.05,221.41,220.18,234.49,205.7,244.68Z"/><path class="cls-6" d="M182.32,121.88s.31-13.09-9.08-15C173.24,106.92,179.45,110.66,182.32,121.88Z"/><path class="cls-6" d="M167.23,256.89s12.88-2.35,12.82-11.91C180.05,245,177.64,251.81,167.23,256.89Z"/><path class="cls-7" d="M227.29,182.12A23.69,23.69,0,0,0,210,159.31a23.68,23.68,0,0,0-29.6-32.22,23.68,23.68,0,0,0-46.08-.64,23.69,23.69,0,0,0-29.94,32.91A23.68,23.68,0,0,0,101.87,204a23.69,23.69,0,0,0,33.27,31.17,23.68,23.68,0,0,0,43.82,1,23.68,23.68,0,0,0,32.74-31.77A23.68,23.68,0,0,0,227.29,182.12Zm-21.64,19.07a20.65,20.65,0,0,1-28.55,27.69,20.65,20.65,0,0,1-38.21-.84,20.64,20.64,0,0,1-29-27.16A20.65,20.65,0,0,1,112,161.94a20.66,20.66,0,0,1,26.1-28.7,20.65,20.65,0,0,1,40.18.56,20.66,20.66,0,0,1,25.81,28.09,20.66,20.66,0,0,1,1.52,39.3Z"/><g class="cls-8"><path class="cls-9" d="M227.29,182.12A23.69,23.69,0,0,0,210,159.31a23.68,23.68,0,0,0-29.6-32.22,23.68,23.68,0,0,0-46.08-.64,23.69,23.69,0,0,0-29.94,32.91A23.68,23.68,0,0,0,101.87,204a23.69,23.69,0,0,0,33.27,31.17,23.68,23.68,0,0,0,43.82,1,23.68,23.68,0,0,0,32.74-31.77A23.68,23.68,0,0,0,227.29,182.12Zm-21.64,19.07a20.65,20.65,0,0,1-28.55,27.69,20.65,20.65,0,0,1-38.21-.84,20.64,20.64,0,0,1-29-27.16A20.65,20.65,0,0,1,112,161.94a20.66,20.66,0,0,1,26.1-28.7,20.65,20.65,0,0,1,40.18.56,20.66,20.66,0,0,1,25.81,28.09,20.66,20.66,0,0,1,1.52,39.3Z"/></g></svg>