<svg id="Layer_1" data-name="Layer 1" xmlns="http://www.w3.org/2000/svg" viewBox="0 0 204.84 211.71"><defs><style>.cls-1{fill:#e1ffff;}.cls-1,.cls-15,.cls-2{stroke:#6af1f2;stroke-miterlimit:10;}.cls-2,.cls-3{fill:#fff;}.cls-4{fill:#00d7ef;}.cls-5{fill:#603913;}.cls-6{fill:#3c2415;}.cls-7{fill:#a97c50;}.cls-8{fill:#8b5e3c;}.cls-9{fill:#754c29;}.cls-10{fill:#009444;}.cls-11{fill:#006838;}.cls-12{fill:#39b54a;}.cls-13{fill:#8dc63f;}.cls-14{fill:#8de43f;}.cls-15{fill:#6af1f2;opacity:0.46;}.cls-16{fill:#726658;}.cls-17{fill:#594a42;}</style></defs><circle class="cls-1" cx="123.66" cy="95.73" r="72.35"/><path class="cls-2" d="M142,31.34s40.42,24.24,37.27,57.9C179.23,89.24,204.35,62.31,142,31.34Z"/><circle class="cls-3" cx="139.19" cy="109.83" r="5.77"/><circle class="cls-3" cx="134.9" cy="83.47" r="5.77"/><circle class="cls-3" cx="87.34" cy="95.01" r="5.77"/><circle class="cls-3" cx="68.34" cy="109.83" r="5.77"/><circle class="cls-3" cx="70.38" cy="131.78" r="4.92"/><circle class="cls-3" cx="83.81" cy="116.03" r="4.28"/><circle class="cls-3" cx="126.73" cy="60.05" r="5.77"/><circle class="cls-3" cx="184.19" cy="100.79" r="5.77"/><circle class="cls-3" cx="111.18" cy="42.97" r="5.77"/><circle class="cls-3" cx="119.84" cy="124.21" r="5.77"/><circle class="cls-3" cx="68.34" cy="77.7" r="5.77"/><circle class="cls-3" cx="67.5" cy="94.61" r="4.93"/><circle class="cls-3" cx="105.4" cy="128.04" r="2.89"/><circle class="cls-3" cx="68.34" cy="65.82" r="2.89"/><circle class="cls-3" cx="93.12" cy="55.97" r="2.89"/><circle class="cls-3" cx="93.12" cy="71.92" r="2.89"/><circle class="cls-3" cx="87.34" cy="140.64" r="2.89"/><circle class="cls-3" cx="184.19" cy="115.6" r="2.89"/><circle class="cls-3" cx="160.35" cy="60.05" r="2.89"/><circle class="cls-3" cx="147.07" cy="137.75" r="2.89"/><circle class="cls-3" cx="116.95" cy="80.58" r="2.89"/><circle class="cls-3" cx="165.27" cy="104.06" r="2.89"/><circle class="cls-3" cx="80.73" cy="60.89" r="4.93"/><circle class="cls-3" cx="129.37" cy="34.79" r="5.52"/><circle class="cls-3" cx="89.39" cy="43.81" r="4.09"/><circle class="cls-3" cx="93.12" cy="129.14" r="4.93"/><circle class="cls-3" cx="169.82" cy="118.49" r="4.93"/><circle class="cls-3" cx="139.19" cy="55.97" r="4.93"/><ellipse class="cls-4" cx="123.42" cy="148.98" rx="44.65" ry="7.82"/><path class="cls-5" d="M138,133.77v13.85h0c.24.53,1.51.94,3,.94s2.79-.41,3-.94h0V133.77Z"/><path class="cls-6" d="M139.72,141.53c0-4.24,1.54-6.55,2.92-7.75H138v13.84h0c.23.49,1.32.88,2.69.93A19.37,19.37,0,0,1,139.72,141.53Z"/><path class="cls-7" d="M143.81,134.67s-.92,7.12-.14,12.2Z"/><path class="cls-8" d="M142.71,136.05a49.65,49.65,0,0,0-.14,11.31Z"/><path class="cls-9" d="M141.61,138a34.15,34.15,0,0,0-.14,9.37Z"/><path class="cls-10" d="M113.66,133.86s30.21,9.27,54.41,0c0,0-26.18-10.18-27.1-22.8C141,111.06,132.88,129,113.66,133.86Z"/><path class="cls-11" d="M140.66,111.79c-1.66,3.24-9.95,17.84-27,22.16a112.82,112.82,0,0,0,27.4,4.09C135.2,129.84,138.51,117.63,140.66,111.79Z"/><path class="cls-12" d="M141.06,115.18s7.12,17.48,23.91,18.4C165,133.58,149.15,127.33,141.06,115.18Z"/><path class="cls-12" d="M118,121.14s25.23,9.6,45.42,0c0,0-21.85-10.56-22.62-23.65C140.79,97.49,134,116.1,118,121.14Z"/><path class="cls-10" d="M140.53,98.24c-1.38,3.37-8.31,18.51-22.54,23a77.4,77.4,0,0,0,22.87,4.25C136,117,138.74,104.31,140.53,98.24Z"/><path class="cls-13" d="M140.86,101.76s5.95,18.13,20,19.09C160.83,120.85,147.62,114.36,140.86,101.76Z"/><path class="cls-13" d="M122.45,107.81s20.27,11.28,36.51,0c0,0-17.57-12.42-18.18-27.79C140.78,80,135.34,101.88,122.45,107.81Z"/><path class="cls-12" d="M140.56,80.9c-1.11,4-6.67,21.75-18.11,27a45.88,45.88,0,0,0,18.38,5C136.9,102.9,139.13,88,140.56,80.9Z"/><path class="cls-14" d="M140.83,85s4.78,21.3,16,22.43A51.22,51.22,0,0,1,140.83,85Z"/><path class="cls-3" d="M141.09,91.3s-.72,15.28,3,18.81c4,3.78,11.27-1,12-2.65s-3.32-3.64-4.9-5.38-5.59-6.3-6.74-8.74S140.7,82.45,141.09,91.3Z"/><path class="cls-5" d="M101.21,134.71v16.57h.05c.29.64,1.8,1.12,3.63,1.12s3.34-.48,3.62-1.12h.06V134.71Z"/><path class="cls-6" d="M103.31,144c0-5.08,1.85-7.83,3.5-9.28h-5.6v16.57h.05c.27.59,1.58,1.05,3.22,1.12C103.88,150.9,103.31,148.34,103.31,144Z"/><path class="cls-7" d="M108.21,135.79s-1.1,8.52-.17,14.59Z"/><path class="cls-8" d="M106.89,137.43s-1,7.91-.16,13.54Z"/><path class="cls-9" d="M105.58,139.76s-1,6.54-.16,11.21Z"/><path class="cls-10" d="M72.14,131.69s36.15,11.08,65.09,0c0,0-31.31-12.19-32.41-27.29C104.82,104.4,95.13,125.87,72.14,131.69Z"/><path class="cls-11" d="M104.44,105.27c-2,3.88-11.91,21.35-32.3,26.51a134.86,134.86,0,0,0,32.77,4.9C97.91,126.87,101.87,112.27,104.44,105.27Z"/><path class="cls-12" d="M104.91,109.33s8.53,20.91,28.62,22C133.53,131.35,114.6,123.87,104.91,109.33Z"/><path class="cls-12" d="M77.32,116.46s30.18,11.49,54.35,0c0,0-26.15-12.64-27.07-28.29C104.6,88.17,96.51,110.43,77.32,116.46Z"/><path class="cls-10" d="M104.29,89.07c-1.66,4-10,22.14-27,27.49a92.74,92.74,0,0,0,27.36,5.08C98.83,111.47,102.14,96.32,104.29,89.07Z"/><path class="cls-13" d="M104.68,93.27s7.12,21.69,23.89,22.84C128.57,116.11,112.77,108.35,104.68,93.27Z"/><path class="cls-13" d="M82.65,100.51s24.26,13.5,43.68,0c0,0-21-14.86-21.75-33.25C104.58,67.26,98.08,93.42,82.65,100.51Z"/><path class="cls-12" d="M104.33,68.31c-1.33,4.74-8,26-21.68,32.32a54.92,54.92,0,0,0,22,6C99.94,94.64,102.61,76.84,104.33,68.31Z"/><path class="cls-14" d="M104.65,73.26s5.72,25.48,19.19,26.84A61.26,61.26,0,0,1,104.65,73.26Z"/><path class="cls-3" d="M110.62,136.27s-16.63-.58-23.3-1.81c-26-4.77-4.92-.55,4.59-12.79,1.31-1.68,4,1.82,6.09,3.69s7.32,7.78,10.54,8C113.05,133.56,119.22,135,110.62,136.27Z"/><path class="cls-3" d="M106.64,95.15s-3.32,8.62,3.56,8.24,11.22,1.9,10.4-1.3-6.13.47-8.54-2S110.33,89.73,106.64,95.15Z"/><path class="cls-3" d="M101.88,111.21s-3.66,4.35-7.56,3.79-5.63,3.17,3.78,4.19,26.45,1.54,20.72-4.39-8.37-5.75-10.68-3-4.35.9-2.39-1.87S103.31,107.13,101.88,111.21Z"/><circle class="cls-3" cx="105.4" cy="57.16" r="5.77"/><circle class="cls-3" cx="111.18" cy="96.25" r="5.77"/><circle class="cls-3" cx="147.07" cy="71.92" r="2.89"/><circle class="cls-3" cx="107.67" cy="77.7" r="2.89"/><circle class="cls-3" cx="116.63" cy="124.91" r="2.89"/><circle class="cls-3" cx="91.19" cy="136.61" r="2.89"/><circle class="cls-3" cx="133.53" cy="124.21" r="2.89"/><circle class="cls-3" cx="154.58" cy="119" r="2.89"/><circle class="cls-3" cx="101.95" cy="142.68" r="2.89"/><circle class="cls-3" cx="119.97" cy="150.38" r="2.89"/><circle class="cls-3" cx="98.05" cy="86.68" r="2.89"/><circle class="cls-3" cx="134.9" cy="141.7" r="5.77"/><circle class="cls-3" cx="158.96" cy="142.68" r="5.77"/><path class="cls-15" d="M120.85,23.44S56.29,24.56,51.32,95.73c-1.83,35.71,32.59,85.71,87.87,62.73C139.19,158.46,59.36,99.57,120.85,23.44Z"/><path class="cls-16" d="M79.45,154.27s47.82,10.17,89.25,0l16.06,33.21s-61.14,18.73-122.19,0Z"/><path class="cls-17" d="M105.86,157.87S81,187.46,123.66,195.81c0,0-20.36,1.93-61.09-8.33l16.88-33.21S97,157.27,105.86,157.87Z"/></svg>