<svg id="Layer_1" data-name="Layer 1" xmlns="http://www.w3.org/2000/svg" xmlns:xlink="http://www.w3.org/1999/xlink" viewBox="0 0 265.84 144.27"><defs><style>.cls-1{fill:none;}.cls-2{fill:#2b3990;}.cls-3{fill:#27aae1;}.cls-4{fill:#262262;}.cls-5{fill:#1c75bc;}.cls-6{clip-path:url(#clip-path);}.cls-7{fill:#00d7ef;}.cls-8{fill:#21409a;}.cls-9{clip-path:url(#clip-path-2);}</style><clipPath id="clip-path"><path class="cls-1" d="M145.77,15.26s-52.29,61.94,31,59.09c0,0-8.13,36.56-11.82,38.14S87,120,81.22,109.1,60.67,74.53,65.71,65.45,96,30.28,100,29.8,145.77,15.26,145.77,15.26Z"/></clipPath><clipPath id="clip-path-2"><path class="cls-1" d="M143.46,28.68s-54.4,20.64-4.91,66.75-11.9,26.22-11.9,26.22l-40-1.58L79.19-10.18l37.64,11.9Z"/></clipPath></defs><polygon class="cls-2" points="160.84 69.14 224.44 83.08 204.71 21.03 160.84 69.14"/><ellipse class="cls-3" cx="172.09" cy="61.2" rx="12.89" ry="11.16"/><polygon class="cls-4" points="119.24 62.87 62.86 30.32 62.86 95.43 119.24 62.87"/><polygon class="cls-2" points="117.01 58.23 55.16 37.87 68.46 101.61 117.01 58.23"/><polygon class="cls-5" points="164.28 66.08 220.67 98.64 220.67 33.53 164.28 66.08"/><polygon class="cls-5" points="112.72 52.88 47.7 49.36 77.16 107.42 112.72 52.88"/><polygon class="cls-3" points="164.24 61.93 212.35 105.8 226.28 42.19 164.24 61.93"/><ellipse class="cls-3" cx="138.55" cy="62.87" rx="33.54" ry="29.27"/><g class="cls-6"><ellipse class="cls-5" cx="138.55" cy="62.87" rx="33.54" ry="29.27"/></g><path class="cls-7" d="M144.68,39.74c-7.25.09,20.07,3.39,24.52,25.52C169.2,65.26,171.81,39.43,144.68,39.74Z"/><ellipse class="cls-5" cx="104.78" cy="61.2" rx="13.73" ry="11.16"/><path class="cls-8" d="M98.45,51.29s-10,14.61,4.94,20.84C103.39,72.13,86.92,67.44,98.45,51.29Z"/><path class="cls-8" d="M108.5,50.23S101.38,64.17,107.09,72C107.09,72,98.87,62.87,108.5,50.23Z"/><path class="cls-5" d="M168.84,50.49s7.13,13.94,1.41,21.76C170.25,72.25,178.47,63.14,168.84,50.49Z"/><path class="cls-5" d="M178.22,51.58s10,14.61-4.94,20.84C173.28,72.42,189.74,67.72,178.22,51.58Z"/><g class="cls-9"><g class="cls-6"><ellipse class="cls-2" cx="138.55" cy="62.87" rx="33.54" ry="29.27"/></g></g></svg>