<svg id="Layer_1" data-name="Layer 1" xmlns="http://www.w3.org/2000/svg" xmlns:xlink="http://www.w3.org/1999/xlink" viewBox="0 0 289.25 186.92"><defs><style>.cls-1{fill:none;}.cls-2{fill:#f7941d;}.cls-3{fill:#fbb040;}.cls-4{fill:#603913;}.cls-5{clip-path:url(#clip-path);}.cls-6{fill:#231f20;}.cls-7{clip-path:url(#clip-path-2);}.cls-8{clip-path:url(#clip-path-3);}.cls-9{clip-path:url(#clip-path-4);}.cls-10{clip-path:url(#clip-path-5);}.cls-11{clip-path:url(#clip-path-6);}.cls-12{clip-path:url(#clip-path-7);}.cls-13{clip-path:url(#clip-path-8);}.cls-14{fill:#f7a81d;}.cls-15{clip-path:url(#clip-path-9);}.cls-16{clip-path:url(#clip-path-10);}</style><clipPath id="clip-path"><ellipse class="cls-1" cx="150.41" cy="23.63" rx="16.89" ry="4.89"/></clipPath><clipPath id="clip-path-2"><ellipse class="cls-1" cx="136.16" cy="100.94" rx="9.16" ry="10.58"/></clipPath><clipPath id="clip-path-3"><ellipse class="cls-1" cx="188.83" cy="64.64" rx="11.61" ry="13.42"/></clipPath><clipPath id="clip-path-4"><ellipse class="cls-1" cx="196.55" cy="113.29" rx="17.48" ry="20.2"/></clipPath><clipPath id="clip-path-5"><ellipse class="cls-1" cx="67.4" cy="125.6" rx="6.82" ry="7.88"/></clipPath><clipPath id="clip-path-6"><ellipse class="cls-1" cx="107.31" cy="78.05" rx="11.61" ry="13.42"/></clipPath><clipPath id="clip-path-7"><ellipse class="cls-1" cx="118.77" cy="33.38" rx="12.38" ry="3.58"/></clipPath><clipPath id="clip-path-8"><ellipse class="cls-1" cx="181.53" cy="37.99" rx="11.42" ry="3.3"/></clipPath><clipPath id="clip-path-9"><ellipse class="cls-1" cx="86.88" cy="38.74" rx="8.83" ry="2.55"/></clipPath><clipPath id="clip-path-10"><ellipse class="cls-1" cx="63.72" cy="67.47" rx="14.33" ry="16.56"/></clipPath></defs><path class="cls-2" d="M209,34.29c-3.57,3.39-11.41,2.27-18.2-2.78a23.34,23.34,0,0,1-7.5-9L153.52,8.92,109.58,22.18a14.5,14.5,0,0,1-23.11,7L35.91,44.41H231.13Z"/><path class="cls-3" d="M223.75,73.69a13,13,0,0,1,7.53-11.81V44.38H35.76V87.33a16.41,16.41,0,0,1,0,32.66v21.82H231.28V85.5A13,13,0,0,1,223.75,73.69Z"/><ellipse class="cls-4" cx="150.41" cy="23.63" rx="16.89" ry="4.89"/><g class="cls-5"><ellipse class="cls-6" cx="150.41" cy="27.41" rx="16.89" ry="3.22"/></g><ellipse class="cls-4" cx="136.16" cy="100.94" rx="9.16" ry="10.58"/><g class="cls-7"><ellipse class="cls-6" cx="143.24" cy="100.94" rx="6.04" ry="10.58"/></g><ellipse class="cls-4" cx="188.83" cy="64.64" rx="11.61" ry="13.42"/><g class="cls-8"><ellipse class="cls-6" cx="197.8" cy="64.64" rx="7.65" ry="13.42"/></g><ellipse class="cls-4" cx="196.55" cy="113.29" rx="17.48" ry="20.2"/><g class="cls-9"><ellipse class="cls-6" cx="210.06" cy="113.29" rx="11.52" ry="20.2"/></g><ellipse class="cls-4" cx="67.4" cy="125.6" rx="6.82" ry="7.88"/><g class="cls-10"><ellipse class="cls-6" cx="72.67" cy="125.6" rx="4.5" ry="7.88"/></g><ellipse class="cls-4" cx="107.31" cy="78.05" rx="11.61" ry="13.42"/><g class="cls-11"><ellipse class="cls-6" cx="116.28" cy="78.05" rx="7.65" ry="13.42"/></g><ellipse class="cls-4" cx="118.77" cy="33.38" rx="12.38" ry="3.58"/><g class="cls-12"><ellipse class="cls-6" cx="118.77" cy="36.15" rx="12.38" ry="2.36"/></g><ellipse class="cls-4" cx="181.53" cy="37.99" rx="11.42" ry="3.3"/><g class="cls-13"><ellipse class="cls-6" cx="181.53" cy="40.54" rx="11.42" ry="2.18"/></g><path class="cls-14" d="M35.76,44.38V87.33a16.41,16.41,0,0,1,0,32.66v21.82H87.51c-2.43-6.32-6.49-16.9-13.29-34.63-8.8-22.93-2.59-46,5.38-62.8Z"/><ellipse class="cls-4" cx="86.88" cy="38.74" rx="8.83" ry="2.55"/><g class="cls-15"><ellipse class="cls-6" cx="86.88" cy="40.72" rx="8.83" ry="1.68"/></g><ellipse class="cls-4" cx="63.72" cy="67.47" rx="14.33" ry="16.56"/><g class="cls-16"><ellipse class="cls-6" cx="74.8" cy="67.47" rx="9.44" ry="16.56"/></g></svg>