<svg id="Layer_1" data-name="Layer 1" xmlns="http://www.w3.org/2000/svg" viewBox="0 0 437.04 371.4"><defs><style>.cls-1{fill:#c0bfbc;opacity:0.13;}.cls-2{fill:#35abed;}.cls-3{fill:#cfddef;}.cls-4{fill:#1e8ebe;}.cls-5{fill:#447eff;}.cls-6{fill:#221df7;}.cls-7{fill:#e0ccfb;}.cls-8{fill:#c0a4f7;}.cls-9{fill:#293cf1;}</style></defs><ellipse class="cls-1" cx="199.44" cy="286.58" rx="160.95" ry="37.77"/><rect class="cls-2" x="81.48" y="99.08" width="162.32" height="195.94"/><polygon class="cls-3" points="243.81 99.7 81.48 99.7 161.13 72.91 324.59 72.91 243.81 99.7"/><polygon class="cls-4" points="324.97 268.85 243.81 295.02 243.81 99.08 324.97 72.91 324.97 268.85"/><polygon class="cls-5" points="104.23 107.96 108.54 121.2 122.46 121.2 111.2 129.39 115.5 142.64 104.23 134.45 92.97 142.64 97.27 129.39 86 121.2 99.93 121.2 104.23 107.96"/><polygon class="cls-5" points="165.19 76.23 167.43 85.2 180.96 88.51 168.81 90.75 171.04 99.72 161.3 92.13 149.16 94.37 155.28 87.44 145.54 79.85 159.06 83.16 165.19 76.23"/><polygon class="cls-5" points="128.91 85.84 130.29 91.38 138.65 93.43 131.15 94.81 132.53 100.36 126.51 95.67 119 97.05 122.78 92.77 116.76 88.07 125.12 90.12 128.91 85.84"/><polygon class="cls-5" points="249.5 75.68 252.47 81.62 266 84.93 254.31 85.29 257.29 91.23 247.09 85.51 235.4 85.87 240.79 81.98 230.58 76.27 244.11 79.58 249.5 75.68"/><polygon class="cls-5" points="274.65 77.68 276.14 80.64 282.9 82.3 277.06 82.48 278.55 85.45 273.44 82.59 267.6 82.77 270.29 80.83 265.19 77.97 271.96 79.62 274.65 77.68"/><polygon class="cls-5" points="193.99 75.68 196.97 81.62 210.49 84.93 198.81 85.29 201.78 91.23 191.58 85.51 179.89 85.87 185.28 81.98 175.07 76.27 188.6 79.58 193.99 75.68"/><polygon class="cls-3" points="262.99 112.83 269.27 131.62 280.46 129.99 273.15 143.24 279.43 162.04 268.63 151.43 261.32 164.68 261.96 144.88 251.16 134.27 262.35 132.63 262.99 112.83"/><polygon class="cls-3" points="310.15 93.55 312.78 101.44 317.48 100.75 314.41 106.31 317.05 114.21 312.51 109.75 309.45 115.32 309.71 107 305.18 102.55 309.88 101.86 310.15 93.55"/><polygon class="cls-3" points="277.64 171.8 283.92 190.6 295.11 188.96 287.8 202.21 294.08 221.01 283.28 210.41 275.97 223.66 276.61 203.85 265.81 193.24 277 191.61 277.64 171.8"/><polygon class="cls-3" points="306.11 226.58 303.18 241.08 311.03 244.19 301.36 250.05 298.43 264.55 295.39 253.67 285.72 259.52 293.51 246.94 290.47 236.05 298.32 239.16 306.11 226.58"/><polygon class="cls-3" points="296.63 111.41 297.6 122.8 304.09 123.4 298.19 129.83 299.16 141.22 294.55 133.81 288.65 140.24 291.7 129.23 287.09 121.82 293.58 122.43 296.63 111.41"/><polygon class="cls-3" points="312.07 179.41 313.04 190.8 319.53 191.4 313.63 197.83 314.6 209.22 309.99 201.81 304.1 208.24 307.14 197.23 302.53 189.82 309.02 190.43 312.07 179.41"/><polygon class="cls-3" points="260.7 215.1 261.66 226.48 268.16 227.09 262.26 233.52 263.23 244.9 258.62 237.49 252.72 243.93 255.77 232.91 251.16 225.51 257.65 226.11 260.7 215.1"/><polygon class="cls-5" points="111.43 229.14 115.73 242.38 129.66 242.38 118.39 250.57 122.7 263.81 111.43 255.63 100.16 263.81 104.47 250.57 93.2 242.38 107.13 242.38 111.43 229.14"/><polygon class="cls-5" points="123.64 142.79 125.11 156.64 138.73 159.52 126.01 165.2 127.48 179.05 118.15 168.7 105.43 174.38 112.39 162.31 103.06 151.97 116.69 154.85 123.64 142.79"/><polygon class="cls-5" points="138.28 189.06 142.01 200.55 154.1 200.55 144.32 207.65 148.06 219.14 138.28 212.04 128.51 219.14 132.24 207.65 122.46 200.55 134.55 200.55 138.28 189.06"/><polygon class="cls-5" points="215.31 158.63 219.05 170.12 231.13 170.12 221.35 177.23 225.09 188.72 215.31 181.62 205.54 188.72 209.27 177.23 199.5 170.12 211.58 170.12 215.31 158.63"/><polygon class="cls-5" points="215.31 247.57 219.02 258.97 231 258.97 221.31 266.01 225.01 277.41 215.31 270.37 205.62 277.41 209.32 266.01 199.62 258.97 211.61 258.97 215.31 247.57"/><polygon class="cls-5" points="195.91 222.55 204.61 230.8 215.14 225.08 209.98 235.9 218.68 244.14 206.8 242.58 201.64 253.4 199.45 241.62 187.57 240.06 198.1 234.34 195.91 222.55"/><polygon class="cls-5" points="206 120.91 216.95 123.8 223.08 114.28 223.72 125.58 234.66 128.47 224.11 132.57 224.75 143.87 217.59 135.1 207.04 139.2 213.16 129.68 206 120.91"/><polygon class="cls-5" points="164.12 121.76 175.07 124.64 181.2 115.13 181.84 126.43 192.78 129.31 182.23 133.41 182.87 144.72 175.71 135.95 165.16 140.05 171.28 130.53 164.12 121.76"/><path class="cls-6" d="M191.26,84.45S200,45.35,266.1,33.88l-5.39,6.75,12.81,2.7s-66.08,14.15-76.19,41.12Z"/><rect class="cls-7" x="81.48" y="179.29" width="162.69" height="30.06"/><rect class="cls-8" x="146.84" y="99.76" width="31.62" height="195.94"/><polygon class="cls-8" points="324.97 185.48 243.81 209.32 243.81 179.04 324.97 156.34 324.97 185.48"/><polygon class="cls-6" points="178.95 99.78 147.47 99.78 219.15 72.99 252.91 72.99 178.95 99.78"/><path class="cls-9" d="M201,19.34s-47,13.78-16.18,69.3l13.49,4.55S179.8,49.68,201,19.34Z"/><path class="cls-8" d="M197.69,93.09s47.09-27.22,12.33-70l-8.94-3.75S219.68,63.29,197.69,93.09Z"/><path class="cls-7" d="M197.5,90.14S188.74,51,122.66,39.57l5.39,6.75L115.24,49s66.08,14.16,76.19,41.13Z"/><path class="cls-9" d="M248.12,38.48S204.36,16.41,189,78l6.74,12.54S211.88,46.12,248.12,38.48Z"/><path class="cls-8" d="M195.29,90s53,12.29,56.83-42.69l-4-8.85S231.7,83.3,195.29,90Z"/></svg>