<svg id="Layer_1" data-name="Layer 1" xmlns="http://www.w3.org/2000/svg" viewBox="0 0 523.64 521.63"><defs><style>.cls-1{fill:#ed1c24;}.cls-2{fill:#ef4136;}.cls-3{fill:#be1e2d;}.cls-4{fill:#ff4d36;}.cls-5{fill:#f7641d;}.cls-6{fill:#fbb040;}.cls-7{fill:#f7941d;}.cls-8{fill:#f15a29;}</style></defs><rect class="cls-1" x="120.5" y="200.38" width="162.32" height="195.94"/><polygon class="cls-2" points="282.82 201 120.5 201 200.14 174.22 363.6 174.22 282.82 201"/><polygon class="cls-3" points="363.98 370.15 282.82 396.32 282.82 200.38 363.98 174.22 363.98 370.15"/><polygon class="cls-4" points="143.25 209.26 147.55 222.51 161.48 222.51 150.21 230.69 154.52 243.94 143.25 235.75 131.98 243.94 136.28 230.69 125.02 222.51 138.94 222.51 143.25 209.26"/><polygon class="cls-4" points="204.21 177.53 206.44 186.51 219.97 189.82 207.82 192.05 210.06 201.03 200.32 193.44 188.17 195.68 194.29 188.75 184.55 181.16 198.08 184.46 204.21 177.53"/><polygon class="cls-4" points="167.93 187.14 169.31 192.69 177.67 194.73 170.16 196.11 171.54 201.66 165.52 196.97 158.01 198.35 161.8 194.07 155.78 189.38 164.14 191.42 167.93 187.14"/><polygon class="cls-4" points="288.51 176.99 291.49 182.93 305.02 186.23 293.33 186.59 296.31 192.53 286.11 186.82 274.42 187.18 279.8 183.29 269.6 177.57 283.13 180.88 288.51 176.99"/><polygon class="cls-4" points="313.66 178.98 315.15 181.95 321.92 183.6 316.07 183.78 317.56 186.75 312.46 183.9 306.62 184.08 309.31 182.13 304.21 179.27 310.97 180.93 313.66 178.98"/><polygon class="cls-4" points="233 176.99 235.98 182.93 249.51 186.23 237.82 186.59 240.8 192.53 230.6 186.82 218.91 187.18 224.29 183.29 214.09 177.57 227.62 180.88 233 176.99"/><polygon class="cls-2" points="302 214.13 308.28 232.93 319.48 231.29 312.16 244.54 318.44 263.34 307.65 252.74 300.33 265.99 300.97 246.18 290.17 235.57 301.37 233.94 302 214.13"/><polygon class="cls-2" points="316.65 273.11 322.93 291.9 334.13 290.26 326.81 303.52 333.1 322.31 322.3 311.71 314.99 324.96 315.62 305.15 304.82 294.55 316.02 292.91 316.65 273.11"/><polygon class="cls-2" points="345.13 327.88 342.19 342.39 350.05 345.5 340.38 351.35 337.44 365.86 334.4 354.97 324.74 360.83 332.52 348.24 329.49 337.36 337.34 340.47 345.13 327.88"/><polygon class="cls-2" points="335.64 212.72 336.61 224.1 343.1 224.71 337.21 231.14 338.18 242.52 333.57 235.11 327.67 241.55 330.72 230.53 326.11 223.13 332.6 223.73 335.64 212.72"/><polygon class="cls-2" points="351.08 280.72 352.05 292.1 358.55 292.7 352.65 299.14 353.62 310.52 349.01 303.11 343.11 309.55 346.16 298.54 341.55 291.13 348.04 291.73 351.08 280.72"/><polygon class="cls-2" points="299.71 316.4 300.68 327.79 307.17 328.39 301.28 334.82 302.24 346.2 297.63 338.8 291.74 345.23 294.78 334.22 290.17 326.81 296.67 327.41 299.71 316.4"/><polygon class="cls-4" points="150.44 330.44 154.75 343.69 168.68 343.69 157.41 351.87 161.71 365.12 150.44 356.93 139.18 365.12 143.48 351.87 132.21 343.69 146.14 343.69 150.44 330.44"/><polygon class="cls-4" points="162.66 244.09 164.12 257.94 177.75 260.83 165.03 266.5 166.49 280.35 157.17 270.01 144.45 275.68 151.4 263.61 142.08 253.27 155.7 256.16 162.66 244.09"/><polygon class="cls-4" points="177.3 290.36 181.03 301.86 193.11 301.86 183.34 308.96 187.07 320.45 177.3 313.35 167.52 320.45 171.25 308.96 161.48 301.86 173.56 301.86 177.3 290.36"/><polygon class="cls-4" points="254.33 259.94 258.06 271.43 270.14 271.43 260.37 278.53 264.1 290.02 254.33 282.92 244.55 290.02 248.29 278.53 238.51 271.43 250.59 271.43 254.33 259.94"/><polygon class="cls-4" points="254.33 348.87 258.03 360.27 270.02 360.27 260.32 367.32 264.03 378.72 254.33 371.67 244.63 378.72 248.34 367.32 238.64 360.27 250.63 360.27 254.33 348.87"/><polygon class="cls-4" points="234.93 323.86 243.62 332.1 254.16 326.38 249 337.2 257.7 345.45 245.81 343.89 240.66 354.71 238.47 342.92 226.58 341.36 237.12 335.64 234.93 323.86"/><polygon class="cls-4" points="245.02 222.22 255.97 225.1 262.09 215.58 262.73 226.89 273.68 229.77 263.13 233.87 263.77 245.18 256.61 236.41 246.05 240.51 252.18 230.99 245.02 222.22"/><polygon class="cls-4" points="203.14 223.06 214.09 225.95 220.21 216.43 220.85 227.73 231.8 230.62 221.25 234.72 221.89 246.02 214.73 237.25 204.17 241.35 210.3 231.83 203.14 223.06"/><path class="cls-5" d="M230.28,185.76s8.76-39.11,74.84-50.57l-5.4,6.74,12.81,2.7s-66.07,14.16-76.19,41.13Z"/><rect class="cls-6" x="120.5" y="280.59" width="162.69" height="30.06"/><rect class="cls-7" x="185.85" y="201.06" width="31.62" height="195.94"/><polygon class="cls-7" points="363.98 286.78 282.82 310.62 282.82 280.34 363.98 257.64 363.98 286.78"/><polygon class="cls-5" points="217.97 201.08 186.49 201.08 258.17 174.29 291.92 174.29 217.97 201.08"/><path class="cls-8" d="M240.05,120.65s-47,13.78-16.18,69.29l13.49,4.55S218.82,151,240.05,120.65Z"/><path class="cls-7" d="M236.71,194.4s47.08-27.23,12.33-70l-8.94-3.75S258.7,164.59,236.71,194.4Z"/><path class="cls-6" d="M236.52,191.45s-8.77-39.11-74.84-50.57l5.39,6.74-12.81,2.7s66.07,14.16,76.19,41.13Z"/><path class="cls-8" d="M287.13,139.78S243.38,117.71,228,179.32l6.74,12.54S250.89,147.42,287.13,139.78Z"/><path class="cls-7" d="M234.3,191.34s53,12.3,56.83-42.69l-4-8.84S270.72,184.61,234.3,191.34Z"/></svg>