<svg id="Layer_1" data-name="Layer 1" xmlns="http://www.w3.org/2000/svg" viewBox="0 0 422.39 443.94"><defs><style>.cls-1{fill:#4ac049;}.cls-2{fill:#55c267;}.cls-3{fill:#279121;}.cls-4{fill:#2ed25b;}.cls-5{fill:#25caae;}.cls-6{fill:#bdc5ce;}.cls-7{fill:#c6c9ca;}.cls-8{fill:#2ec48a;}</style></defs><rect class="cls-1" x="88.25" y="137.11" width="162.32" height="195.94"/><polygon class="cls-2" points="250.57 137.74 88.25 137.74 167.89 110.95 331.35 110.95 250.57 137.74"/><polygon class="cls-3" points="331.73 306.88 250.57 333.05 250.57 137.12 331.73 110.95 331.73 306.88"/><polygon class="cls-4" points="111 145.99 115.3 159.24 129.23 159.24 117.96 167.43 122.26 180.67 111 172.48 99.73 180.67 104.03 167.43 92.76 159.24 106.69 159.24 111 145.99"/><polygon class="cls-4" points="171.95 114.26 174.19 123.24 187.72 126.55 175.57 128.78 177.81 137.76 168.06 130.17 155.92 132.41 162.04 125.48 152.3 117.89 165.83 121.19 171.95 114.26"/><polygon class="cls-4" points="135.67 123.87 137.05 129.42 145.41 131.46 137.91 132.84 139.29 138.39 133.27 133.7 125.76 135.08 129.55 130.8 123.53 126.11 131.89 128.15 135.67 123.87"/><polygon class="cls-4" points="256.26 113.72 259.24 119.66 272.76 122.96 261.08 123.33 264.06 129.26 253.85 123.55 242.17 123.91 247.55 120.02 237.35 114.3 250.88 117.61 256.26 113.72"/><polygon class="cls-4" points="281.41 115.71 282.9 118.68 289.66 120.33 283.82 120.51 285.31 123.48 280.21 120.63 274.36 120.81 277.06 118.86 271.95 116 278.72 117.66 281.41 115.71"/><polygon class="cls-4" points="200.75 113.72 203.73 119.66 217.26 122.96 205.57 123.33 208.55 129.26 198.34 123.55 186.66 123.91 192.04 120.02 181.84 114.3 195.37 117.61 200.75 113.72"/><polygon class="cls-2" points="269.75 150.86 276.03 169.66 287.22 168.02 279.91 181.28 286.19 200.07 275.39 189.47 268.08 202.72 268.72 182.91 257.92 172.31 269.11 170.67 269.75 150.86"/><polygon class="cls-2" points="316.91 131.58 319.54 139.47 324.24 138.79 321.17 144.35 323.81 152.24 319.28 147.79 316.21 153.35 316.48 145.04 311.94 140.59 316.64 139.9 316.91 131.58"/><polygon class="cls-2" points="284.4 209.84 290.68 228.63 301.87 227 294.56 240.25 300.84 259.05 290.04 248.44 282.73 261.69 283.37 241.88 272.57 231.28 283.76 229.64 284.4 209.84"/><polygon class="cls-2" points="312.87 264.61 309.94 279.12 317.79 282.23 308.13 288.08 305.19 302.59 302.15 291.7 292.48 297.56 300.27 284.97 297.23 274.09 305.09 277.2 312.87 264.61"/><polygon class="cls-2" points="303.39 149.45 304.36 160.83 310.85 161.44 304.96 167.87 305.92 179.25 301.31 171.84 295.42 178.28 298.46 167.26 293.85 159.86 300.35 160.46 303.39 149.45"/><polygon class="cls-2" points="318.83 217.45 319.8 228.83 326.29 229.44 320.4 235.87 321.36 247.25 316.75 239.84 310.86 246.28 313.9 235.26 309.29 227.86 315.79 228.46 318.83 217.45"/><polygon class="cls-2" points="267.46 253.13 268.43 264.52 274.92 265.12 269.02 271.55 269.99 282.94 265.38 275.53 259.49 281.96 262.53 270.95 257.92 263.54 264.41 264.14 267.46 253.13"/><polygon class="cls-4" points="118.19 267.17 122.5 280.42 136.42 280.42 125.15 288.6 129.46 301.85 118.19 293.66 106.92 301.85 111.23 288.6 99.96 280.42 113.89 280.42 118.19 267.17"/><polygon class="cls-4" points="130.41 180.82 131.87 194.67 145.5 197.56 132.78 203.23 134.24 217.08 124.92 206.74 112.19 212.41 119.15 200.34 109.83 190 123.45 192.89 130.41 180.82"/><polygon class="cls-4" points="145.04 227.09 148.78 238.59 160.86 238.59 151.08 245.69 154.82 257.18 145.04 250.08 135.27 257.18 139 245.69 129.23 238.59 141.31 238.59 145.04 227.09"/><polygon class="cls-4" points="222.08 196.67 225.81 208.16 237.89 208.16 228.12 215.26 231.85 226.75 222.08 219.65 212.3 226.75 216.03 215.26 206.26 208.16 218.34 208.16 222.08 196.67"/><polygon class="cls-4" points="222.08 285.61 225.78 297 237.76 297 228.07 304.05 231.77 315.45 222.08 308.4 212.38 315.45 216.08 304.05 206.39 297 218.37 297 222.08 285.61"/><polygon class="cls-4" points="202.67 260.59 211.37 268.83 221.9 263.11 216.75 273.93 225.44 282.18 213.56 280.62 208.4 291.44 206.22 279.65 194.33 278.09 204.86 272.37 202.67 260.59"/><polygon class="cls-4" points="212.77 158.95 223.71 161.83 229.84 152.31 230.48 163.62 241.43 166.5 230.87 170.6 231.51 181.91 224.35 173.14 213.8 177.24 219.93 167.72 212.77 158.95"/><polygon class="cls-4" points="170.89 159.79 181.83 162.68 187.96 153.16 188.6 164.46 199.55 167.35 188.99 171.45 189.63 182.75 182.47 173.98 171.92 178.08 178.05 168.56 170.89 159.79"/><path class="cls-5" d="M198,122.49s8.77-39.11,74.84-50.57l-5.39,6.74,12.81,2.7s-66.08,14.16-76.19,41.13Z"/><rect class="cls-6" x="88.25" y="217.32" width="162.69" height="30.06"/><rect class="cls-7" x="153.6" y="137.79" width="31.62" height="195.94"/><polygon class="cls-7" points="331.73 223.51 250.57 247.35 250.57 217.07 331.73 194.37 331.73 223.51"/><polygon class="cls-5" points="185.72 137.81 154.24 137.81 225.92 111.02 259.67 111.02 185.72 137.81"/><path class="cls-8" d="M207.8,57.38s-47,13.78-16.18,69.29l13.49,4.55S186.56,87.72,207.8,57.38Z"/><path class="cls-7" d="M204.45,131.13s47.09-27.23,12.33-70l-8.93-3.75S226.44,101.32,204.45,131.13Z"/><path class="cls-6" d="M204.26,128.18s-8.76-39.11-74.84-50.57l5.4,6.74L122,87.05s66.07,14.16,76.19,41.13Z"/><path class="cls-8" d="M254.88,76.51s-43.75-22.07-59.16,39.54l6.74,12.54S218.64,84.15,254.88,76.51Z"/><path class="cls-7" d="M202.05,128.07s53,12.3,56.83-42.69l-4-8.84S238.47,121.34,202.05,128.07Z"/></svg>