<svg id="Layer_1" data-name="Layer 1" xmlns="http://www.w3.org/2000/svg" viewBox="0 0 483.64 556.12"><defs><style>.cls-1{fill:silver;opacity:0.13;}.cls-2{fill:#3859ed;}.cls-3{fill:#3b49ef;}.cls-4{fill:#2244be;}.cls-5{fill:#3b3bff;}.cls-6{fill:#9b73f7;}.cls-7{fill:#e491fb;}.cls-8{fill:#aa22f7;}.cls-9{fill:#522ef1;}</style></defs><ellipse class="cls-1" cx="230.62" cy="402.84" rx="160.95" ry="37.77"/><rect class="cls-2" x="112.66" y="215.34" width="162.32" height="195.94"/><polygon class="cls-3" points="274.99 215.96 112.67 215.96 192.31 189.17 355.77 189.17 274.99 215.96"/><polygon class="cls-4" points="356.15 385.11 274.99 411.27 274.99 215.34 356.15 189.17 356.15 385.11"/><polygon class="cls-5" points="135.41 224.21 139.72 237.46 153.65 237.46 142.38 245.65 146.68 258.89 135.41 250.71 124.15 258.89 128.45 245.65 117.18 237.46 131.11 237.46 135.41 224.21"/><polygon class="cls-5" points="196.37 192.48 198.61 201.46 212.14 204.77 199.99 207 202.22 215.98 192.48 208.39 180.34 210.63 186.46 203.7 176.72 196.11 190.25 199.41 196.37 192.48"/><polygon class="cls-5" points="160.09 202.09 161.47 207.64 169.83 209.68 162.33 211.06 163.71 216.61 157.69 211.92 150.18 213.3 153.97 209.02 147.94 204.33 156.31 206.37 160.09 202.09"/><polygon class="cls-5" points="280.68 191.94 283.65 197.88 297.18 201.19 285.5 201.55 288.47 207.48 278.27 201.77 266.58 202.13 271.97 198.24 261.76 192.52 275.29 195.83 280.68 191.94"/><polygon class="cls-5" points="305.83 193.93 307.32 196.9 314.08 198.56 308.24 198.74 309.73 201.7 304.63 198.85 298.78 199.03 301.47 197.08 296.37 194.22 303.14 195.88 305.83 193.93"/><polygon class="cls-5" points="225.17 191.94 228.15 197.88 241.67 201.19 229.99 201.55 232.97 207.48 222.76 201.77 211.07 202.13 216.46 198.24 206.25 192.52 219.78 195.83 225.17 191.94"/><polygon class="cls-3" points="294.17 229.08 300.45 247.88 311.64 246.24 304.33 259.5 310.61 278.29 299.81 267.69 292.5 280.94 293.14 261.13 282.34 250.53 293.53 248.89 294.17 229.08"/><polygon class="cls-3" points="341.33 209.8 343.96 217.69 348.66 217.01 345.59 222.57 348.23 230.46 343.69 226.01 340.63 231.57 340.89 223.26 336.36 218.81 341.06 218.12 341.33 209.8"/><polygon class="cls-3" points="308.82 288.06 315.1 306.85 326.29 305.22 318.98 318.47 325.26 337.27 314.46 326.66 307.15 339.91 307.79 320.11 296.99 309.5 308.18 307.86 308.82 288.06"/><polygon class="cls-3" points="337.29 342.83 334.36 357.34 342.21 360.45 332.54 366.3 329.61 380.81 326.57 369.92 316.9 375.78 324.69 363.19 321.65 352.31 329.5 355.42 337.29 342.83"/><polygon class="cls-3" points="327.81 227.67 328.78 239.05 335.27 239.66 329.37 246.09 330.34 257.47 325.73 250.06 319.84 256.5 322.88 245.49 318.27 238.08 324.76 238.68 327.81 227.67"/><polygon class="cls-3" points="343.25 295.67 344.22 307.05 350.71 307.66 344.81 314.09 345.78 325.47 341.17 318.06 335.28 324.5 338.32 313.49 333.71 306.08 340.2 306.68 343.25 295.67"/><polygon class="cls-3" points="291.88 331.35 292.84 342.74 299.34 343.34 293.44 349.77 294.41 361.16 289.8 353.75 283.9 360.18 286.95 349.17 282.34 341.76 288.83 342.37 291.88 331.35"/><polygon class="cls-5" points="142.61 345.39 146.91 358.64 160.84 358.64 149.57 366.82 153.88 380.07 142.61 371.88 131.34 380.07 135.65 366.82 124.38 358.64 138.31 358.64 142.61 345.39"/><polygon class="cls-5" points="154.82 259.04 156.29 272.89 169.91 275.78 157.19 281.45 158.66 295.3 149.33 284.96 136.61 290.63 143.57 278.56 134.24 268.22 147.87 271.11 154.82 259.04"/><polygon class="cls-5" points="169.46 305.31 173.19 316.81 185.28 316.81 175.5 323.91 179.24 335.4 169.46 328.3 159.69 335.4 163.42 323.91 153.65 316.81 165.73 316.81 169.46 305.31"/><polygon class="cls-5" points="246.49 274.89 250.23 286.38 262.31 286.38 252.53 293.48 256.27 304.97 246.49 297.87 236.72 304.97 240.45 293.48 230.68 286.38 242.76 286.38 246.49 274.89"/><polygon class="cls-5" points="246.49 363.82 250.2 375.23 262.18 375.23 252.49 382.27 256.19 393.67 246.49 386.62 236.8 393.67 240.5 382.27 230.8 375.23 242.79 375.23 246.49 363.82"/><polygon class="cls-5" points="227.09 338.81 235.79 347.06 246.32 341.33 241.16 352.15 249.86 360.4 237.98 358.84 232.82 369.66 230.63 357.88 218.75 356.31 229.28 350.59 227.09 338.81"/><polygon class="cls-5" points="237.18 237.17 248.13 240.06 254.26 230.53 254.9 241.84 265.84 244.72 255.29 248.82 255.93 260.13 248.77 251.36 238.22 255.46 244.34 245.94 237.18 237.17"/><polygon class="cls-5" points="195.31 238.01 206.25 240.9 212.38 231.38 213.02 242.68 223.96 245.57 213.41 249.67 214.05 260.97 206.89 252.2 196.34 256.3 202.47 246.78 195.31 238.01"/><path class="cls-6" d="M222.44,200.71s8.77-39.11,74.84-50.57l-5.39,6.74,12.81,2.7s-66.08,14.16-76.19,41.13Z"/><rect class="cls-7" x="112.66" y="295.54" width="162.69" height="30.06"/><rect class="cls-8" x="178.02" y="216.02" width="31.62" height="195.94"/><polygon class="cls-8" points="356.15 301.73 274.99 325.57 274.99 295.3 356.15 272.59 356.15 301.73"/><polygon class="cls-6" points="210.13 216.03 178.66 216.03 250.34 189.25 284.09 189.25 210.13 216.03"/><path class="cls-9" d="M232.22,135.6s-47,13.78-16.18,69.29l13.49,4.55S211,165.94,232.22,135.6Z"/><path class="cls-8" d="M228.87,209.35s47.09-27.23,12.33-70l-8.94-3.75S250.86,179.54,228.87,209.35Z"/><path class="cls-7" d="M228.68,206.4s-8.76-39.11-74.84-50.57l5.4,6.74-12.82,2.7s66.08,14.16,76.19,41.13Z"/><path class="cls-9" d="M279.3,154.73s-43.76-22.07-59.16,39.54l6.74,12.54S243.06,162.37,279.3,154.73Z"/><path class="cls-8" d="M226.47,206.29s53,12.3,56.83-42.69l-4-8.84S262.88,199.56,226.47,206.29Z"/></svg>