<svg id="Layer_1" data-name="Layer 1" xmlns="http://www.w3.org/2000/svg" viewBox="0 0 436.57 459.12"><defs><style>.cls-1{fill:#bcc0bd;opacity:0.13;}.cls-2{fill:#b635ed;}.cls-3{fill:#da36ef;}.cls-4{fill:#851ebe;}.cls-5{fill:#ff36fc;}.cls-6{fill:#f71d83;}.cls-7{fill:#fbd0cc;}.cls-8{fill:#f7a6a4;}.cls-9{fill:#f129ae;}</style></defs><ellipse class="cls-1" cx="216.19" cy="329.49" rx="160.95" ry="37.77"/><rect class="cls-2" x="98.23" y="141.99" width="162.32" height="195.94"/><polygon class="cls-3" points="260.55 142.62 98.23 142.62 177.87 115.83 341.33 115.83 260.55 142.62"/><polygon class="cls-4" points="341.71 311.76 260.55 337.93 260.55 142 341.71 115.83 341.71 311.76"/><polygon class="cls-5" points="120.98 150.87 125.28 164.12 139.21 164.12 127.94 172.31 132.25 185.55 120.98 177.36 109.71 185.55 114.02 172.31 102.75 164.12 116.67 164.12 120.98 150.87"/><polygon class="cls-5" points="181.94 119.14 184.17 128.12 197.7 131.43 185.55 133.66 187.79 142.64 178.05 135.05 165.9 137.29 172.03 130.36 162.28 122.77 175.81 126.07 181.94 119.14"/><polygon class="cls-5" points="145.66 128.75 147.04 134.3 155.4 136.34 147.89 137.72 149.27 143.27 143.25 138.58 135.75 139.96 139.53 135.68 133.51 130.99 141.87 133.03 145.66 128.75"/><polygon class="cls-5" points="266.24 118.6 269.22 124.54 282.75 127.84 271.06 128.21 274.04 134.14 263.84 128.43 252.15 128.79 257.53 124.9 247.33 119.18 260.86 122.49 266.24 118.6"/><polygon class="cls-5" points="291.39 120.59 292.88 123.56 299.65 125.21 293.8 125.39 295.29 128.36 290.19 125.51 284.35 125.69 287.04 123.74 281.94 120.88 288.7 122.54 291.39 120.59"/><polygon class="cls-5" points="210.73 118.6 213.71 124.54 227.24 127.84 215.55 128.21 218.53 134.14 208.33 128.43 196.64 128.79 202.02 124.9 191.82 119.18 205.35 122.49 210.73 118.6"/><polygon class="cls-3" points="279.73 155.74 286.01 174.54 297.2 172.9 289.89 186.16 296.17 204.95 285.38 194.35 278.06 207.6 278.7 187.79 267.9 177.19 279.1 175.55 279.73 155.74"/><polygon class="cls-3" points="326.89 136.46 329.53 144.35 334.23 143.67 331.16 149.23 333.79 157.12 329.26 152.67 326.19 158.23 326.46 149.92 321.93 145.47 326.62 144.78 326.89 136.46"/><polygon class="cls-3" points="294.38 214.72 300.66 233.51 311.86 231.88 304.55 245.13 310.83 263.93 300.03 253.32 292.72 266.57 293.35 246.76 282.55 236.16 293.75 234.52 294.38 214.72"/><polygon class="cls-3" points="322.86 269.49 319.92 284 327.78 287.11 318.11 292.96 315.17 307.47 312.13 296.58 302.47 302.44 310.25 289.85 307.22 278.97 315.07 282.08 322.86 269.49"/><polygon class="cls-3" points="313.38 154.33 314.34 165.71 320.83 166.31 314.94 172.75 315.91 184.13 311.3 176.72 305.4 183.16 308.45 172.15 303.84 164.74 310.33 165.34 313.38 154.33"/><polygon class="cls-3" points="328.81 222.33 329.78 233.71 336.27 234.31 330.38 240.75 331.35 252.13 326.74 244.72 320.84 251.16 323.89 240.15 319.28 232.74 325.77 233.34 328.81 222.33"/><polygon class="cls-3" points="277.44 258.01 278.41 269.4 284.9 270 279.01 276.43 279.97 287.82 275.36 280.41 269.47 286.84 272.51 275.83 267.9 268.42 274.4 269.02 277.44 258.01"/><polygon class="cls-5" points="128.17 272.05 132.48 285.3 146.41 285.3 135.14 293.48 139.44 306.73 128.17 298.54 116.91 306.73 121.21 293.48 109.94 285.3 123.87 285.3 128.17 272.05"/><polygon class="cls-5" points="140.39 185.7 141.85 199.55 155.48 202.44 142.76 208.11 144.22 221.96 134.9 211.62 122.18 217.29 129.13 205.22 119.81 194.88 133.43 197.77 140.39 185.7"/><polygon class="cls-5" points="155.03 231.97 158.76 243.47 170.84 243.47 161.07 250.57 164.8 262.06 155.03 254.96 145.25 262.06 148.99 250.57 139.21 243.47 151.29 243.47 155.03 231.97"/><polygon class="cls-5" points="232.06 201.55 235.79 213.04 247.88 213.04 238.1 220.14 241.83 231.63 232.06 224.53 222.28 231.63 226.02 220.14 216.24 213.04 228.32 213.04 232.06 201.55"/><polygon class="cls-5" points="232.06 290.49 235.76 301.88 247.75 301.88 238.05 308.93 241.76 320.33 232.06 313.28 222.36 320.33 226.07 308.93 216.37 301.88 228.35 301.88 232.06 290.49"/><polygon class="cls-5" points="212.66 265.47 221.35 273.71 231.88 267.99 226.73 278.81 235.43 287.06 223.54 285.5 218.39 296.32 216.2 284.53 204.31 282.97 214.84 277.25 212.66 265.47"/><polygon class="cls-5" points="222.75 163.83 233.7 166.71 239.82 157.19 240.46 168.5 251.41 171.38 240.86 175.48 241.5 186.79 234.34 178.02 223.78 182.12 229.91 172.6 222.75 163.83"/><polygon class="cls-5" points="180.87 164.68 191.82 167.56 197.94 158.04 198.58 169.34 209.53 172.23 198.98 176.33 199.62 187.63 192.46 178.86 181.9 182.96 188.03 173.44 180.87 164.68"/><path class="cls-6" d="M208,127.37s8.76-39.11,74.84-50.57l-5.4,6.74,12.81,2.7s-66.07,14.16-76.19,41.13Z"/><rect class="cls-7" x="98.23" y="222.2" width="162.69" height="30.06"/><rect class="cls-8" x="163.58" y="142.67" width="31.62" height="195.94"/><polygon class="cls-8" points="341.71 228.39 260.55 252.23 260.55 221.95 341.71 199.25 341.71 228.39"/><polygon class="cls-6" points="195.7 142.69 164.22 142.69 235.9 115.9 269.65 115.9 195.7 142.69"/><path class="cls-9" d="M217.78,62.26s-47,13.78-16.18,69.29l13.5,4.55S196.55,92.6,217.78,62.26Z"/><path class="cls-8" d="M214.44,136s47.08-27.23,12.33-70l-8.94-3.75S236.43,106.2,214.44,136Z"/><path class="cls-7" d="M214.25,133.06S205.48,94,139.41,82.49l5.39,6.74L132,91.93s66.08,14.16,76.19,41.13Z"/><path class="cls-9" d="M264.86,81.39s-43.75-22.07-59.16,39.54l6.74,12.54S228.62,89,264.86,81.39Z"/><path class="cls-8" d="M212,133s53,12.3,56.83-42.69l-4-8.84S248.45,126.22,212,133Z"/></svg>