<svg id="Layer_1" data-name="Layer 1" xmlns="http://www.w3.org/2000/svg" viewBox="0 0 460.44 432.96"><defs><style>.cls-1{fill:#be1e2d;}.cls-2{fill:#e1ffff;stroke:#00aeef;stroke-miterlimit:10;}.cls-3{fill:#00d7ef;}.cls-4{fill:#231f20;}.cls-5{fill:#726658;}.cls-6{fill:#fbb040;}.cls-7{fill:#f7941d;}.cls-8{fill:#603913;}.cls-9{fill:#ed1c24;}</style></defs><path class="cls-1" d="M237.56,40.12s1.15-16.77,16.21-19.79,31.15-6.48,41.54-.75,13.07,6.4,7.29,8.73-10.67,24.55-12,37.89S221.41,54.05,237.56,40.12Z"/><circle class="cls-2" cx="231.93" cy="338.03" r="82.67"/><path class="cls-3" d="M187.05,270.49s-77.47,63.32,1.17,135.28C188.22,405.77,158.8,362.42,187.05,270.49Z"/><path class="cls-3" d="M184.42,271.33s42.69,48.69,92.39.23C276.81,271.56,251.49,261.49,184.42,271.33Z"/><circle class="cls-2" cx="231.93" cy="217.5" r="70.67"/><path class="cls-3" d="M193.56,159.77s-66.22,54.13,1,115.64C194.56,275.41,169.41,238.36,193.56,159.77Z"/><path class="cls-3" d="M196,154.05s28.86,42.53,70.34.43C266.32,154.48,252.1,145.64,196,154.05Z"/><circle class="cls-2" cx="231.93" cy="109.86" r="58.67"/><path class="cls-3" d="M200.08,61.93s-55,44.94.83,96C200.91,157.94,180,127.18,200.08,61.93Z"/><circle class="cls-4" cx="215.57" cy="101.43" r="6.45"/><circle class="cls-4" cx="247.3" cy="101.43" r="6.45"/><circle class="cls-4" cx="230.09" cy="204.02" r="6.35"/><circle class="cls-4" cx="230.09" cy="184.28" r="5.39"/><circle class="cls-4" cx="230.09" cy="225" r="7.5"/><circle class="cls-4" cx="230.09" cy="247.88" r="7.47"/><circle class="cls-4" cx="229.09" cy="268.81" r="5.99"/><circle class="cls-4" cx="229.15" cy="302.94" r="5.39"/><circle class="cls-4" cx="229.15" cy="323.11" r="5.39"/><path class="cls-5" d="M174,189.76c-7.21-1.57-27.22-5.14-37.71.62-12.95,7.11-22.73,3.33-22.73-4.56,0,0-10.07-11-7.7,8.32,0,0-2.62-.49-6.59-.94-2.09-5.54-6.86-13-6.86-13-13.46-24.76-7.53,0-7.53,0A123.52,123.52,0,0,1,91,192.55a82.82,82.82,0,0,0-10.06.14c-.88-1.93-1.83-3.58-1.83-3.58-21.3-22.43-15.87-8.93-15.87-8.93a68.19,68.19,0,0,1,12.61,13.16,37.66,37.66,0,0,0-4.06,1s-10.61,4.28-12.9,7.51a23.17,23.17,0,0,0,.63,2.45c2.08,1,7.5,1.49,18.49.66,8-2.28,11.54-2.3,14.57-1.74-.06,0-20.63,5.36-25.95,14.4,0,0,0,7.5,33-12.94a39,39,0,0,0,6.25.28c13.93-.33,26.37,3.89,36.15,0,7.14-2.84,15.72-4.19,33-2.77a21.56,21.56,0,0,0,.51-4.54A21.86,21.86,0,0,0,174,189.76Z"/><path class="cls-5" d="M282.71,187.86c7-2.44,26.39-8.46,37.51-4,13.72,5.46,23,.51,22-7.32,0,0,8.64-12.19,8.67,7.31,0,0,2.54-.82,6.42-1.75,1.39-5.76,5.21-13.77,5.21-13.77,10.3-26.23,7.47-.93,7.47-.93a127.71,127.71,0,0,0-4.56,13,84.43,84.43,0,0,1,10-1.1c.63-2,1.38-3.78,1.38-3.78,18.37-24.88,14.64-10.81,14.64-10.81a67.87,67.87,0,0,0-10.88,14.61,36.39,36.39,0,0,1,4.14.46s11.06,2.94,13.72,5.87a21.1,21.1,0,0,1-.32,2.5c-1.93,1.31-7.25,2.41-18.26,2.94-8.24-1.28-11.74-.86-14.68.07.06,0,21.13,2.77,27.53,11.09,0,0,.9,7.45-34.32-8.77a41.14,41.14,0,0,1-6.17,1c-13.87,1.39-25.69,7.11-35.88,4.46-7.44-1.94-16.11-2.23-33.07,1.31a21.6,21.6,0,0,1-1.06-4.44A22.17,22.17,0,0,1,282.71,187.86Z"/><path class="cls-6" d="M218.82,129.57s3.61,8.13,0,21.69-3.6,16.14-3.15,23.78,4,30.92,12,0c2.62-12.41,1.78-15.92,6.22-21.63s7.56-20.11,8.91-28.68C244.11,116.42,214.11,117.85,218.82,129.57Z"/><path class="cls-4" d="M229.09,281.48a5.39,5.39,0,0,0-5.39,5.4v.05c2.28.22,4.58.34,6.91.34,1.29,0,2.58,0,3.85-.11,0-.09,0-.19,0-.28A5.4,5.4,0,0,0,229.09,281.48Z"/><path class="cls-7" d="M225.16,143.31a85.26,85.26,0,0,0,.57-21.55c-3.61,1.15-6.56,3.14-5.25,8,0,0,2.25,7.68,0,20.52s-3.25,15.26-3,22.49c.15,3.94,1.22,12.25,2.66,14.3C219.58,173.53,223.35,153.85,225.16,143.31Z"/><path class="cls-8" d="M239.63,35.54s37.72,31,42.65,32.22,13.11-3.86,8.83-7.33c0,0-44.85-25.69-50.94-26.37S239.63,35.54,239.63,35.54Z"/><path class="cls-9" d="M231.56,34.76s-7.65.73-10.5,7.74-4,7.61-8.47,9.85,32.65,24.44,53.86,32.43,26.72,6.55,26.14,2.15a52.17,52.17,0,0,1,.24-12.49c.3-.92,7.61-11.83-4.34-15s-37-18.51-43-22.86S234.26,34.11,231.56,34.76Z"/><path class="cls-1" d="M215.46,55.09s2-2.23,8.69-13.34c5.41-7,9.82-7.36,16.69-2.35,0,0-8.69,1.06-10.91,6.15S223.37,59,227.09,61.93C227.09,61.93,222.76,62.2,215.46,55.09Z"/></svg>