<svg id="Layer_1" data-name="Layer 1" xmlns="http://www.w3.org/2000/svg" viewBox="0 0 357.33 459.7"><defs><style>.cls-1{fill:#603913;}.cls-2{fill:#3c2415;}.cls-3{fill:#a97c50;}.cls-4{fill:#8b5e3c;}.cls-5{fill:#754c29;}.cls-6{fill:#009444;}.cls-7{fill:#006838;}.cls-8{fill:#39b54a;}.cls-9{fill:#8dc63f;}.cls-10{fill:#8de43f;}.cls-11{fill:#fff;}</style></defs><path class="cls-1" d="M172.12,342.11V413h.21c1.23,2.72,7.71,4.8,15.52,4.8s14.28-2.08,15.51-4.8h.21V342.11Z"/><path class="cls-2" d="M181.1,381.82c0-21.72,7.89-33.5,15-39.69H172.12V413h.21c1.14,2.51,6.75,4.48,13.76,4.76C183.53,411.38,181.1,400.41,181.1,381.82Z"/><path class="cls-3" d="M202.08,346.73s-4.75,36.45-.75,62.41Z"/><path class="cls-4" d="M196.41,353.75s-4.4,33.82-.69,57.92Z"/><path class="cls-5" d="M190.79,363.7s-4.4,28-.69,48Z"/><path class="cls-6" d="M47.72,342.58s154.66,47.41,278.52,0c0,0-134-52.14-138.71-116.74C187.53,225.84,146.09,317.7,47.72,342.58Z"/><path class="cls-7" d="M185.92,229.56C177.43,246.18,135,320.92,47.72,343c0,0,62.71,19.21,140.23,20.94C158,322,174.94,259.49,185.92,229.56Z"/><path class="cls-8" d="M188,246.91s36.5,89.49,122.42,94.23C310.37,341.14,229.41,309.14,188,246.91Z"/><path class="cls-8" d="M69.89,277.45s129.12,49.16,232.52,0c0,0-111.87-54.08-115.79-121.07C186.62,156.38,152,251.64,69.89,277.45Z"/><path class="cls-6" d="M185.27,160.24C178.18,177.47,142.73,255,69.89,277.88c0,0,52.35,19.92,117.08,21.71C161.94,256.09,176.1,191.28,185.27,160.24Z"/><path class="cls-9" d="M187,178.23s30.46,92.8,102.2,97.71C289.17,275.94,221.58,242.76,187,178.23Z"/><path class="cls-9" d="M92.71,209.18s103.78,57.78,186.88,0c0,0-89.91-63.55-93.07-142.27C186.52,66.91,158.72,178.85,92.71,209.18Z"/><path class="cls-8" d="M185.44,71.44c-5.69,20.25-34.19,111.35-92.73,138.25,0,0,42.08,23.42,94.1,25.52C166.69,184.09,178.07,107.92,185.44,71.44Z"/><path class="cls-10" d="M186.81,92.59s24.48,109,82.14,114.83C269,207.42,214.62,168.42,186.81,92.59Z"/><path class="cls-11" d="M188.15,124.67S184.44,202.9,203.57,221c20.51,19.35,57.73-5.25,61.6-13.54s-17-18.64-25.1-27.53-28.61-32.28-34.5-44.75C199.33,121.93,186.15,79.36,188.15,124.67Z"/></svg>