<svg id="Layer_1" data-name="Layer 1" xmlns="http://www.w3.org/2000/svg" viewBox="0 0 317.4 339.35"><defs><style>.cls-1{fill:#603913;}.cls-2{fill:#3c2415;}.cls-3{fill:#a97c50;}.cls-4{fill:#8b5e3c;}.cls-5{fill:#754c29;}.cls-6{fill:#009444;}.cls-7{fill:#006838;}.cls-8{fill:#39b54a;}.cls-9{fill:#8dc63f;}.cls-10{fill:#8de43f;}.cls-11{fill:#fff;}</style></defs><path class="cls-1" d="M133.18,260.77v55h.16c1,2.12,6,3.73,12,3.73s11.08-1.61,12-3.73h.17v-55Z"/><path class="cls-2" d="M140.15,291.6c0-16.86,6.13-26,11.61-30.81H133.18v55h.16c.88,1.95,5.24,3.48,10.68,3.7C142,314.55,140.15,306,140.15,291.6Z"/><path class="cls-3" d="M156.43,264.36s-3.68,28.29-.58,48.45Z"/><path class="cls-4" d="M152,269.81s-3.42,26.26-.54,45Z"/><path class="cls-5" d="M147.67,277.54s-3.41,21.74-.53,37.23Z"/><path class="cls-6" d="M36.6,250.73s120.07,36.8,216.22,0c0,0-104-40.49-107.68-90.63C145.14,160.1,113,231.41,36.6,250.73Z"/><path class="cls-7" d="M143.89,163c-6.59,12.9-39.55,70.92-107.29,88.06,0,0,48.68,14.91,108.87,16.25C122.2,234.74,135.37,186.22,143.89,163Z"/><path class="cls-8" d="M145.47,176.46s28.33,69.46,95,73.14C240.5,249.6,177.65,224.76,145.47,176.46Z"/><path class="cls-8" d="M53.81,200.16s100.25,38.16,180.52,0c0,0-86.85-42-89.9-94C144.43,106.18,117.57,180.12,53.81,200.16Z"/><path class="cls-6" d="M143.38,109.17c-5.5,13.38-33,73.55-89.57,91.32,0,0,40.65,15.47,90.89,16.86C125.27,183.58,136.27,133.27,143.38,109.17Z"/><path class="cls-9" d="M144.7,123.14s23.66,72,79.34,75.85C224,199,171.57,173.23,144.7,123.14Z"/><path class="cls-9" d="M71.53,147.17s80.57,44.85,145.08,0c0,0-69.8-49.34-72.25-110.45C144.36,36.72,122.77,123.62,71.53,147.17Z"/><path class="cls-8" d="M143.52,40.24C139.1,56,117,126.68,71.53,147.56c0,0,32.67,18.18,73.05,19.81C129,127.69,137.8,68.56,143.52,40.24Z"/><path class="cls-10" d="M144.58,56.66s19,84.65,63.76,89.14C208.34,145.8,166.17,115.52,144.58,56.66Z"/><path class="cls-11" d="M164.42,266S109.18,264,87,260c-86.4-15.87-16.34-1.84,15.24-42.48,4.36-5.6,13.25,6,20.22,12.26s24.33,25.81,35,26.4C172.49,257,193,261.72,164.42,266Z"/><path class="cls-11" d="M151.19,129.38S140.18,158,163,156.76s37.26,6.3,34.56-4.33-20.37,1.54-28.39-6.63S163.46,111.38,151.19,129.38Z"/><path class="cls-11" d="M135.39,182.73s-12.15,14.42-25.11,12.57-18.71,10.55,12.55,13.92,87.86,5.11,68.82-14.59-27.81-19.08-35.46-9.82-14.44,3-8-6.23S140.13,169.15,135.39,182.73Z"/></svg>