<svg id="Layer_1" data-name="Layer 1" xmlns="http://www.w3.org/2000/svg" viewBox="0 0 402.68 428.45"><defs><style>.cls-1{fill:#603913;}.cls-2{fill:#3c2415;}.cls-3{fill:#a97c50;}.cls-4{fill:#8b5e3c;}.cls-5{fill:#754c29;}.cls-6{fill:#009444;}.cls-7{fill:#006838;}.cls-8{fill:#39b54a;}.cls-9{fill:#8dc63f;}.cls-10{fill:#8de43f;}.cls-11{fill:#fff;}</style></defs><path class="cls-1" d="M232.06,299.13V409.3h.33c1.91,4.24,12,7.47,24.11,7.47s22.2-3.23,24.11-7.47H281V299.13Z"/><path class="cls-2" d="M246,360.85c0-33.77,12.27-52.07,23.24-61.69h-37.2V409.33h.33c1.77,3.91,10.49,7,21.38,7.41C249.8,406.79,246,389.74,246,360.85Z"/><path class="cls-3" d="M278.62,306.31s-7.38,56.65-1.17,97Z"/><path class="cls-4" d="M269.81,317.22s-6.84,52.57-1.08,90Z"/><path class="cls-5" d="M261.08,332.69s-6.84,43.54-1.08,74.55Z"/><path class="cls-6" d="M116.37,290.58S271,338,394.89,290.58c0,0-134-52.15-138.7-116.74C256.19,173.84,214.74,265.69,116.37,290.58Z"/><path class="cls-7" d="M254.57,177.55c-8.48,16.62-50.95,91.37-138.2,113.44,0,0,62.71,19.22,140.24,20.94C226.63,270,243.59,207.49,254.57,177.55Z"/><path class="cls-8" d="M256.61,194.91S293.1,284.39,379,289.13C379,289.13,298.07,257.13,256.61,194.91Z"/><path class="cls-8" d="M138.54,225.44s129.13,49.16,232.53,0c0,0-111.87-54.08-115.8-121.06C255.27,104.38,220.67,199.63,138.54,225.44Z"/><path class="cls-6" d="M253.92,108.23c-7.08,17.23-42.53,94.75-115.38,117.64,0,0,52.36,19.92,117.08,21.72C230.59,204.09,244.76,139.27,253.92,108.23Z"/><path class="cls-9" d="M255.62,126.23S286.09,219,357.83,223.94C357.83,223.94,290.23,190.75,255.62,126.23Z"/><path class="cls-9" d="M161.37,162s103.77,42.67,186.88,0c0,0-89.91-46.93-93.07-105.07C255.18,56.91,227.37,139.58,161.37,162Z"/><path class="cls-8" d="M254.09,60.25c-5.69,15-34.18,82.24-92.72,102.11,0,0,42.07,17.29,94.09,18.84C235.35,143.45,246.73,87.2,254.09,60.25Z"/><path class="cls-10" d="M255.46,75.87S280,156.41,337.6,160.68C337.6,160.68,283.28,131.88,255.46,75.87Z"/><path class="cls-11" d="M243.83,114.09s-2.83,22-21.48,26.4-31.23,6-30.94,15.06,2.52,8.48,21.92,6.94,12.93-13.31,22.59,3.45,10.84,10.63,18.27-6.44.42-53.63,2.37-66.38S239.69,84.69,243.83,114.09Z"/><path class="cls-11" d="M213.92,213.57S189,228.08,179.25,223.94s-50.67,2.58,34.67,9C248.88,232.94,277,189.57,213.92,213.57Z"/><path class="cls-11" d="M150.6,283.91s5.14-2.6,11.35-6.08c23.32-13.08,18.14-23,49.66-11.87s47.92,29.71,71.42,19.61,33.47,18.06-6.12,20.77C203.85,311.34,119.88,296.14,150.6,283.91Z"/><path class="cls-11" d="M316.53,214.62s65,6.78,22.2,16.18S271.91,228,316.53,214.62Z"/></svg>