<svg id="Layer_1" data-name="Layer 1" xmlns="http://www.w3.org/2000/svg" xmlns:xlink="http://www.w3.org/1999/xlink" viewBox="0 0 252 352.78"><defs><style>.cls-1{fill:none;}.cls-2{fill:#80cee2;}.cls-3{fill:#27aae1;}.cls-4{fill:#00aeef;}.cls-11,.cls-5{fill:#f1f2f2;}.cls-5{opacity:0.42;}.cls-6{clip-path:url(#clip-path);}.cls-7{fill:#1c75bc;}.cls-8{fill:#fff;}.cls-9{fill:#d1d3d4;}.cls-10{fill:#808285;}.cls-12{fill:#f15a29;}.cls-13{fill:#f7941d;}.cls-14{fill:#fff200;}.cls-15{fill:#231f20;}</style><clipPath id="clip-path"><ellipse class="cls-1" cx="125.33" cy="82.41" rx="43.13" ry="11.69"/></clipPath></defs><polygon class="cls-2" points="217.33 284.78 30.67 284.78 50.67 78.11 197.33 78.11 217.33 284.78"/><ellipse class="cls-3" cx="124" cy="82.89" rx="43.21" ry="11.69"/><path class="cls-3" d="M156.61,132.3s3,50.68,10.49,102.59C167.1,234.89,174,190.1,156.61,132.3Z"/><polygon class="cls-3" points="34.97 254.12 32 284.78 218.67 284.78 215.7 254.12 34.97 254.12"/><ellipse class="cls-3" cx="124.34" cy="284.78" rx="92.34" ry="20"/><ellipse class="cls-4" cx="124" cy="255.78" rx="88.44" ry="20"/><path class="cls-5" d="M121,107.45s27.88,9.91,73.94-9l18.47,172.87S186.33,183.45,121,107.45Z"/><ellipse class="cls-2" cx="124" cy="82.41" rx="73.94" ry="20"/><ellipse class="cls-3" cx="125.33" cy="82.89" rx="43.13" ry="11.69"/><g class="cls-6"><ellipse class="cls-7" cx="125" cy="93.71" rx="32.68" ry="11.6"/></g><rect class="cls-8" x="108.67" y="217.78" width="30.67" height="43.45"/><ellipse class="cls-8" cx="124" cy="260.89" rx="15.33" ry="5.89"/><ellipse class="cls-8" cx="124" cy="217.78" rx="15.33" ry="5.89"/><ellipse class="cls-9" cx="124" cy="217.78" rx="15.33" ry="5.89"/><ellipse class="cls-10" cx="124.34" cy="219.11" rx="11.67" ry="2.55"/><path class="cls-11" d="M56,102.41s-10.67,89-17.33,182.37C38.67,284.78,57.33,210.69,56,102.41Z"/><path class="cls-12" d="M122.68,216.11s-4.66-.65-2.24-8.33,3-14.39,2.24-17.55c0,0,10.61,21.13,5,24.72C124.54,216.11,126.77,216.67,122.68,216.11Z"/><path class="cls-13" d="M123,215.85s-3.93-.55-1.89-7S123.6,196.68,123,194c0,0,8.95,17.83,4.24,20.85C124.54,215.85,126.42,216.32,123,215.85Z"/><path class="cls-14" d="M123.42,216.54s-2.81-.4-1.35-5,1.79-8.66,1.35-10.57c0,0,6.39,12.73,3,14.89C124.54,216.54,125.88,216.87,123.42,216.54Z"/><path class="cls-15" d="M123.11,219.48s-.85-5.27,2.12-5.72c0,0-1.7,5.45.85,5.72C126.08,219.48,126.29,220.32,123.11,219.48Z"/></svg>