<svg xmlns="http://www.w3.org/2000/svg" xmlns:xlink="http://www.w3.org/1999/xlink" viewBox="0 0 1627.95 1314.76"><defs><style>.cls-1{fill:url(#radial-gradient);}.cls-2{fill:url(#radial-gradient-2);}</style><radialGradient id="radial-gradient" cx="673.76" cy="998.39" r="334.24" gradientUnits="userSpaceOnUse"><stop offset="0" stop-color="#ffdc78"/><stop offset="1" stop-color="#ffa03d"/></radialGradient><radialGradient id="radial-gradient-2" cx="876.14" cy="436.51" r="314.94" xlink:href="#radial-gradient"/></defs><g id="head"><path class="cls-1" d="M938.81,784.05C763.51,777.4,464,809.8,391.93,932.94c-58,11.25-139.06,49.85-139.06,83.95,0,17.09,24.4,35.87,55.84,35.87,23.25,0,53.38-10.84,81.94-25.36,1.79,2.16,3.71,4.31,5.73,6.44-44.2,17.37-84.65,43.69-84.65,67.77,0,17.1,24.4,35.87,55.84,35.87,33.59,0,81.52-22.62,118.34-46.28q8.55,3.61,17.62,7c-41.38,17.32-77.65,42.13-77.65,64.94,0,17.09,24.39,35.87,55.84,35.87,44.51,0,114.25-39.73,149.87-69q12,1.73,24.37,3.08c-22.19,13.94-37.59,29.66-37.59,44.53,0,17.09,24.39,35.86,55.83,35.86,58.32,0,415.28-190.9,420.35-324.33C1097.68,806.58,1022.36,787.22,938.81,784.05Z"/><path class="cls-2" d="M907.84,12.58C842.55,32.2,750.45,291.67,750.45,451.78c0,213.3,118.61,412,190,412,33.86,0,76.06-13.08,56.35-85.66-35-129-120-225.46-120-364.1,0-135.42,118.4-297.67,118.4-344C995.17,33.14,973.12-1.93,907.84,12.58Z"/></g></svg>