<svg id="Layer_1" data-name="Layer 1" xmlns="http://www.w3.org/2000/svg" xmlns:xlink="http://www.w3.org/1999/xlink" viewBox="0 0 289.75 335.54"><defs><style>.cls-1{fill:none;}.cls-2{fill:#736b55;}.cls-3{clip-path:url(#clip-path);}.cls-4{fill:#5c595b;}.cls-5{fill:#8c855d;}.cls-6{fill:#727175;}.cls-7{clip-path:url(#clip-path-2);}.cls-8{clip-path:url(#clip-path-3);}.cls-9{clip-path:url(#clip-path-4);}.cls-10{fill:#231f20;}.cls-11{clip-path:url(#clip-path-5);}.cls-12{clip-path:url(#clip-path-6);}.cls-13{clip-path:url(#clip-path-7);}.cls-14{fill:#6f5f8b;}.cls-15{fill:#4d0d4b;}.cls-16{clip-path:url(#clip-path-8);}.cls-17{opacity:0.58;}</style><clipPath id="clip-path"><path class="cls-1" d="M112.09,109.6S28.58,274.8,143.86,287.24c123.51,13.33,18.66,50.6,18.66,50.6s-133.81-16.44-134.34-34S8.78,226.68,7.26,215.93,38.63,111.21,38.63,111.21Z"/></clipPath><clipPath id="clip-path-2"><path class="cls-1" d="M115.18,38.55s-80,113.92,30.43,122.5c118.3,9.19,17.88,34.89,17.88,34.89S35.31,184.6,34.81,172.5s-18.58-53.21-20-60.63,30-72.21,30-72.21Z"/></clipPath><clipPath id="clip-path-3"><path class="cls-1" d="M170.32,34.11S157.24,85,197.09,73.81c42.7-12,10.86,10.12,10.86,10.12s-46.45,12.54-48.21,8.3-13.51-16.55-15-19,1-29.6,1-29.6Z"/></clipPath><clipPath id="clip-path-4"><path class="cls-1" d="M82.59,39.68s22.1,47.72,45.85,13.8c25.45-36.34,14.81,1,14.81,1s-28,39.11-32.08,36.94-20.93-4.27-23.63-5.23S69.61,62.56,69.61,62.56Z"/></clipPath><clipPath id="clip-path-5"><path class="cls-1" d="M58.78,213.45s-40.37,79.87,15.36,85.89c59.72,6.44,9,24.46,9,24.46s-64.7-7.95-64.95-16.43S8.84,270.06,8.1,264.86s15.17-50.63,15.17-50.63Z"/></clipPath><clipPath id="clip-path-6"><path class="cls-1" d="M182.28,215.91s-40.37,79.88,15.36,85.89c59.72,6.45,9,24.47,9,24.47s-64.7-7.95-64.95-16.44-9.38-37.31-10.12-42.51,15.17-50.63,15.17-50.63Z"/></clipPath><clipPath id="clip-path-7"><path class="cls-1" d="M154.92,102.33s-35.24,50.18,13.4,54c52.11,4.05,7.87,15.37,7.87,15.37s-56.45-5-56.67-10.32-8.19-23.44-8.83-26.71,13.23-31.81,13.23-31.81Z"/></clipPath><clipPath id="clip-path-8"><path class="cls-1" d="M191.15,101.58s-13.53,17,1.82,25.44l-12,5.06s-15.32-8.64-15.93-9.64-.48-11.52,0-12,9.45-6.12,10.63-6S191.15,101.58,191.15,101.58Z"/></clipPath></defs><ellipse class="cls-2" cx="131.82" cy="207.54" rx="78.94" ry="80.64"/><g class="cls-3"><ellipse class="cls-4" cx="131.82" cy="207.54" rx="78.94" ry="80.64"/></g><ellipse class="cls-5" cx="131.82" cy="211.97" rx="53.72" ry="64.47"/><path class="cls-6" d="M110.54,155.48C112,154,70.48,199.29,99.27,259.25,99.27,259.25,47.67,202.2,110.54,155.48Z"/><ellipse class="cls-2" cx="134.08" cy="106.08" rx="75.61" ry="55.61"/><g class="cls-7"><ellipse class="cls-4" cx="134.08" cy="106.08" rx="75.61" ry="55.61"/></g><ellipse class="cls-2" cx="185.83" cy="55.72" rx="28.27" ry="21.11" transform="translate(-7.8 67.76) rotate(-20.25)"/><g class="cls-8"><ellipse class="cls-4" cx="185.83" cy="55.72" rx="28.27" ry="21.11" transform="translate(-7.8 67.76) rotate(-20.25)"/></g><ellipse class="cls-5" cx="190.44" cy="53.27" rx="19.24" ry="16.88" transform="translate(-7.19 60.22) rotate(-17.64)"/><path class="cls-6" d="M178.69,41.49c.38-.54-10.19,15.28,4.39,27.11C183.08,68.6,161,60,178.69,41.49Z"/><ellipse class="cls-2" cx="108.27" cy="46.6" rx="28.27" ry="21.11" transform="matrix(0.51, -0.86, 0.86, 0.51, 13.18, 116.26)"/><g class="cls-9"><ellipse class="cls-4" cx="108.27" cy="46.6" rx="28.27" ry="21.11" transform="matrix(0.51, -0.86, 0.86, 0.51, 13.18, 116.26)"/></g><ellipse class="cls-5" cx="110.29" cy="41.79" rx="19.24" ry="16.88" transform="translate(15.06 111.37) rotate(-56.9)"/><path class="cls-6" d="M98.6,30.14c.29-.59-6.82,20.45,5.93,29.44C104.53,59.58,83.82,51.07,98.6,30.14Z"/><ellipse class="cls-4" cx="85.81" cy="252" rx="25.64" ry="32.39"/><ellipse class="cls-10" cx="175.91" cy="256.12" rx="25.64" ry="32.39"/><ellipse class="cls-2" cx="68.33" cy="260.8" rx="38.17" ry="38.99"/><g class="cls-11"><ellipse class="cls-4" cx="68.33" cy="260.8" rx="38.17" ry="38.99"/></g><ellipse class="cls-5" cx="68.33" cy="270.43" rx="25.98" ry="25.33"/><path class="cls-6" d="M58,246.59c.71-.6-19.36,17.21-5.45,40.77C52.58,287.36,27.64,265,58,246.59Z"/><ellipse class="cls-5" cx="50.8" cy="239.41" rx="7.85" ry="7.66"/><path class="cls-6" d="M47.69,232.71c.22-.18-5.85,5.2-1.65,12.32C46,245,38.51,238.25,47.69,232.71Z"/><ellipse class="cls-5" cx="86.45" cy="239.41" rx="7.85" ry="7.66"/><path class="cls-6" d="M83.34,232.71c.21-.18-5.85,5.2-1.65,12.32C81.69,245,74.15,238.25,83.34,232.71Z"/><ellipse class="cls-5" cx="68.23" cy="235.3" rx="7.85" ry="7.66"/><path class="cls-6" d="M65.12,228.59c.21-.18-5.85,5.21-1.65,12.33C63.47,240.92,55.93,234.14,65.12,228.59Z"/><ellipse class="cls-2" cx="191.82" cy="263.27" rx="38.17" ry="38.99"/><g class="cls-12"><ellipse class="cls-4" cx="191.82" cy="263.27" rx="38.17" ry="38.99"/></g><ellipse class="cls-5" cx="191.82" cy="272.89" rx="25.98" ry="25.33"/><path class="cls-6" d="M181.53,249.05c.71-.59-19.36,17.22-5.45,40.77C176.08,289.82,151.14,267.41,181.53,249.05Z"/><ellipse class="cls-5" cx="174.3" cy="241.88" rx="7.85" ry="7.66"/><path class="cls-6" d="M171.19,235.17c.21-.18-5.85,5.21-1.65,12.32C169.54,247.49,162,240.72,171.19,235.17Z"/><ellipse class="cls-5" cx="209.95" cy="241.88" rx="7.85" ry="7.66"/><path class="cls-6" d="M206.84,235.17c.21-.18-5.85,5.21-1.65,12.32C205.19,247.49,197.65,240.72,206.84,235.17Z"/><ellipse class="cls-5" cx="191.73" cy="237.77" rx="7.85" ry="7.66"/><path class="cls-6" d="M188.62,231.06c.21-.18-5.85,5.2-1.65,12.32C187,243.38,179.43,236.61,188.62,231.06Z"/><ellipse class="cls-4" cx="44.94" cy="161.06" rx="41.81" ry="23.85"/><ellipse class="cls-2" cx="224.28" cy="161.88" rx="41.81" ry="23.85"/><path class="cls-6" d="M27.94,142.15s23.64-8.84,45,4.56C73,146.71,63.3,141,27.94,142.15Z"/><path class="cls-5" d="M244.62,142.94s-23.64-8.84-45,4.56C199.58,147.5,209.26,141.79,244.62,142.94Z"/><ellipse class="cls-5" cx="163.24" cy="132.08" rx="33.31" ry="24.49"/><g class="cls-13"><ellipse class="cls-6" cx="163.24" cy="132.08" rx="33.31" ry="24.49"/></g><circle class="cls-10" cx="137.24" cy="96.76" r="9.68"/><circle class="cls-10" cx="172.84" cy="96.21" r="7.77"/><path class="cls-14" d="M143.62,91.46s7.15,11-5.58,13C138,104.44,147.4,101.21,143.62,91.46Z"/><circle class="cls-15" cx="184.06" cy="117.24" r="9.68"/><path class="cls-14" d="M178.45,93.11s4.67,7.16-3.64,8.47C174.81,101.58,180.92,99.48,178.45,93.11Z"/><g class="cls-16"><circle class="cls-10" cx="183.97" cy="117.34" r="9.68"/></g><circle class="cls-5" cx="20.37" cy="161.42" r="13.9"/><circle class="cls-5" cx="248.96" cy="161.42" r="13.9"/></svg>