<svg id="Layer_1" data-name="Layer 1" xmlns="http://www.w3.org/2000/svg" xmlns:xlink="http://www.w3.org/1999/xlink" viewBox="0 0 312.05 376.29"><defs><style>.cls-1{fill:none;}.cls-2{fill:#009444;}.cls-12,.cls-3{fill:#006838;}.cls-4{clip-path:url(#clip-path);}.cls-5{clip-path:url(#clip-path-2);}.cls-6{opacity:0.45;}.cls-7{fill:#58595b;}.cls-8{clip-path:url(#clip-path-3);}.cls-9{clip-path:url(#clip-path-4);}.cls-10{clip-path:url(#clip-path-5);}.cls-11{clip-path:url(#clip-path-6);}.cls-12{opacity:0.5;}.cls-13{fill:#39b54a;opacity:0.47;}</style><clipPath id="clip-path"><path class="cls-1" d="M100,167.9s-58.53,19.69-85.09,61.3S3.47,197.75,4.18,190.42s13.76-64.54,29.87-63.87,47.33,7.2,48.48,7.87S100,167.9,100,167.9Z"/></clipPath><clipPath id="clip-path-2"><path class="cls-1" d="M205.36,273.51s-58.9-35.45-64.4-26.12-36,1.65-26.16,78.3,114.07,69.07,109.73,21.55S205.36,273.51,205.36,273.51Z"/></clipPath><clipPath id="clip-path-3"><path class="cls-1" d="M100.73,166.76s-58.53,19.69-85.09,61.3S4.24,196.61,5,189.28s13.76-64.54,29.86-63.87,47.34,7.2,48.49,7.88S100.73,166.76,100.73,166.76Z"/></clipPath><clipPath id="clip-path-4"><path class="cls-1" d="M206.12,272.37s-58.9-35.44-64.39-26.12-36,1.65-26.16,78.3,114.06,69.07,109.72,21.55S206.12,272.37,206.12,272.37Z"/></clipPath><clipPath id="clip-path-5"><path class="cls-1" d="M113.2,228.53s-40.44,46.66-42.22,96-25.78-21.32-28.89-28-20.89-62.59-6.66-70.19,44.44-17.81,45.77-17.81S113.2,228.53,113.2,228.53Z"/></clipPath><clipPath id="clip-path-6"><path class="cls-1" d="M257.61,266.06s-68.74-.66-68.74,10.16S158.65,295.93,206.06,357s133.33,1.64,105.48-37.11S257.61,266.06,257.61,266.06Z"/></clipPath></defs><path class="cls-2" d="M183.5,99.44s10.75-22.77,49.14,2.29,39.58,35.08,29.53,44.62-58.91,82-67.15,108S183.37,335.84,142,321.93,56.64,242.68,39.2,237.71,10,186.55,30.45,172.84s45-23.75,63.84,10.42,29.38,55.4,38.16,52.54S149.34,149.94,183.5,99.44Z"/><path class="cls-3" d="M248.94,162.81c1.37.57-6.9,12.45-14.79,22.05,0,0-55.4-32-69.49-48.4,0,0-.17-9,9.76-21.88C174.42,114.58,207.16,157.78,248.94,162.81Z"/><path class="cls-3" d="M46.38,241.72c-6.88-4.86-11.62-3.39-18.94-14.27,0,0,43.83-40.22,63.64-48.83,0,0,3.93,4,10.94,17.94C102,196.56,63.55,203.3,46.38,241.72Z"/><path class="cls-3" d="M228.5,193.86c1.25.51-6.07,12.95-13.82,22.63,0,0-50-28.85-62.63-44.36,0,0-2.41-10.29,7.37-23.29C159.42,148.84,189.46,190.45,228.5,193.86Z"/><path class="cls-3" d="M206.44,229.81c.61.56-1.6,4-3.72,7.09,0,0-43.16-25.24-58.22-36.64a13.6,13.6,0,0,1,2-7.49S173.27,216.43,206.44,229.81Z"/><ellipse class="cls-3" cx="227.78" cy="116.29" rx="11.68" ry="41.84" transform="translate(12 253.57) rotate(-59.51)"/><g class="cls-4"><path class="cls-3" d="M183.56,100.15s10.74-22.77,49.14,2.29,39.57,35.08,29.53,44.62-58.92,82-67.15,108S183.43,336.55,142,322.64,56.7,243.4,39.26,238.42,10,187.26,30.5,173.56s45-23.76,63.84,10.41,29.39,55.4,38.16,52.54S149.39,150.65,183.56,100.15Z"/></g><g class="cls-5"><path class="cls-3" d="M183.2,100s10.75-22.77,49.14,2.28,39.58,35.08,29.54,44.62-58.92,82-67.16,108-11.65,81.47-53.06,67.55S56.35,243.19,38.9,238.22s-29.22-51.16-8.75-64.87,45-23.76,63.84,10.42,29.39,55.39,38.16,52.53S149,150.44,183.2,100Z"/></g><g class="cls-6"><path class="cls-7" d="M184.27,98.31s10.75-22.77,49.14,2.28,39.58,35.08,29.53,44.62-58.92,82-67.15,108-11.65,81.47-53.06,67.55S57.41,241.55,40,236.58s-29.22-51.16-8.75-64.87,45-23.76,63.84,10.42,29.38,55.39,38.15,52.53S150.11,148.8,184.27,98.31Z"/><path class="cls-7" d="M249.71,161.67c1.36.58-6.9,12.46-14.79,22.06,0,0-55.4-32-69.49-48.41,0,0-.17-9,9.76-21.88C175.19,113.44,207.93,156.64,249.71,161.67Z"/><path class="cls-7" d="M47.15,240.58c-6.89-4.85-11.62-3.38-18.95-14.27,0,0,43.84-40.21,63.64-48.83,0,0,3.94,4,11,18C102.79,195.43,64.32,202.16,47.15,240.58Z"/><path class="cls-7" d="M229.26,192.73c1.26.51-6.07,12.94-13.82,22.62,0,0-50-28.85-62.62-44.36,0,0-2.42-10.28,7.37-23.29C160.19,147.7,190.23,189.31,229.26,192.73Z"/><path class="cls-7" d="M207.2,228.68c.61.55-1.59,4-3.71,7.08,0,0-43.17-25.23-58.22-36.63a13.58,13.58,0,0,1,2-7.49S174,215.29,207.2,228.68Z"/><ellipse class="cls-7" cx="228.54" cy="115.15" rx="11.68" ry="41.84" transform="translate(13.36 253.67) rotate(-59.51)"/><g class="cls-8"><path class="cls-1" d="M184.32,99s10.75-22.77,49.14,2.29S273,136.38,263,145.92s-58.91,82-67.15,108-11.65,81.47-53.06,67.55S57.47,242.26,40,237.29s-29.22-51.16-8.75-64.87,45-23.75,63.84,10.42,29.39,55.39,38.16,52.53S150.16,149.52,184.32,99Z"/></g><g class="cls-9"><path class="cls-1" d="M184,98.81S194.72,76,233.11,101.1s39.58,35.08,29.53,44.62-58.91,82-67.15,108-11.65,81.46-53.06,67.55S57.11,242.05,39.67,237.08s-29.22-51.16-8.75-64.87,45-23.75,63.84,10.42,29.39,55.4,38.16,52.53S149.81,149.31,184,98.81Z"/></g></g><path class="cls-2" d="M150.46,127.15s-2.29-25.07,43.51-23,51.9,10.15,48.08,23.46S232.89,228.22,239,254.82s31.29,76.11-11.45,85.13S113.82,315,96.27,319.52s-51.14-29.26-40.45-51.46,26.71-43.3,60.29-23.42,53.43,32.83,59.54,25.91S146.64,188,150.46,127.15Z"/><path class="cls-3" d="M239,148.55c1.46-.19.36,14.24-1.56,26.51,0,0-64,.5-84.44-6.45,0,0-4.69-7.64-2.7-23.81C150.31,144.8,200.45,165.41,239,148.55Z"/><path class="cls-3" d="M104.49,319.32c-8.4-.68-11.73,3-23.57-2.68,0,0,17.37-56.9,30.07-74.37,0,0,5.44,1.48,18.54,9.91C129.53,252.18,99.79,277.51,104.49,319.32Z"/><path class="cls-3" d="M237.14,185.69c1.34-.2,1.34,14.23-.43,26.51,0,0-57.71.5-76.47-6.46,0,0-7.3-7.64-5.47-23.81C154.77,181.93,201.77,202.55,237.14,185.69Z"/><path class="cls-3" d="M236.37,227.86c.81.17.67,4.28.4,8,0,0-50,.15-68.76-2a13.58,13.58,0,0,1-2.06-7.48S201,233.16,236.37,227.86Z"/><ellipse class="cls-3" cx="197.16" cy="119.2" rx="41.84" ry="11.68"/><g class="cls-10"><path class="cls-3" d="M150.87,127.74s-2.29-25.08,43.5-23,51.91,10.14,48.09,23.46S233.3,228.8,239.41,255.4,270.7,331.51,228,340.54s-113.73-25-131.28-20.44-51.14-29.26-40.46-51.46,26.72-43.29,60.3-23.41,53.43,32.83,59.54,25.91S147.05,188.58,150.87,127.74Z"/></g><g class="cls-11"><path class="cls-3" d="M150.46,127.74s-2.29-25.08,43.51-23,51.9,10.14,48.08,23.46S232.89,228.8,239,255.4s31.29,76.11-11.45,85.14-113.73-25-131.28-20.44-51.14-29.26-40.45-51.46,26.71-43.29,60.29-23.41,53.43,32.83,59.54,25.91S146.64,188.58,150.46,127.74Z"/></g><path class="cls-12" d="M153.47,125.41s12.62,11.73,44.91,9.06c0,0-20.74,120.3-16,136.89C182.38,271.36,148.86,185.68,153.47,125.41Z"/><path class="cls-13" d="M227.78,130.89a40.82,40.82,0,0,0,10.32-5.48s-14.21,118.49-5.16,129.65C232.94,255.06,218.84,155.34,227.78,130.89Z"/><path class="cls-12" d="M83.94,237.14s-48.7,26.52-20.56,65.91c0,0,17.54,19.81,37.85,14,9.13-1.22,21.11,3,24.3,5.8,0,0-13.26-63.69,6.74-69C132.27,253.86,118.49,237.14,83.94,237.14Z"/></svg>