<svg id="Layer_1" data-name="Layer 1" xmlns="http://www.w3.org/2000/svg" xmlns:xlink="http://www.w3.org/1999/xlink" viewBox="0 0 223.36 222.46"><defs><style>.cls-1{fill:none;}.cls-2{fill:#2e3192;}.cls-3{clip-path:url(#clip-path);}.cls-4{fill:#6af1f2;}.cls-5{clip-path:url(#clip-path-2);}.cls-6{clip-path:url(#clip-path-3);}.cls-7{opacity:0.58;}.cls-8{clip-path:url(#clip-path-4);}.cls-9{fill:#1c75bc;}.cls-10{opacity:0.93;fill:url(#radial-gradient);}.cls-11{clip-path:url(#clip-path-5);}.cls-12{clip-path:url(#clip-path-6);}.cls-13{fill:#2b3990;}.cls-14{fill:url(#linear-gradient);}</style><clipPath id="clip-path"><circle class="cls-1" cx="124.02" cy="118.46" r="91.43"/></clipPath><clipPath id="clip-path-2"><circle class="cls-1" cx="124.02" cy="117.7" r="91.43"/></clipPath><clipPath id="clip-path-3"><circle class="cls-1" cx="124.02" cy="118.08" r="91.43"/></clipPath><clipPath id="clip-path-4"><path class="cls-1" d="M116.72,27s-127.9,117.58,27,196.17c192,97.38-53.32,45.69-53.32,45.69L-35.26,180.05l18.8-84.31S17.25-35.13,116.72,27Z"/></clipPath><radialGradient id="radial-gradient" cx="158.6" cy="65.97" r="28.02" gradientUnits="userSpaceOnUse"><stop offset="0.04" stop-color="#fff"/><stop offset="1" stop-color="#fff" stop-opacity="0"/></radialGradient><clipPath id="clip-path-5"><path class="cls-1" d="M165.49,28.13S37.6,145.7,192.52,224.29c192,97.39-53.31,45.7-53.31,45.7L13.51,181.16l18.8-84.31S66-34,165.49,28.13Z"/></clipPath><clipPath id="clip-path-6"><path class="cls-1" d="M141,28.13S13.12,145.7,168,224.29c192,97.39-53.31,45.7-53.31,45.7L-11,181.16,7.83,96.85S41.55-34,141,28.13Z"/></clipPath><linearGradient id="linear-gradient" x1="279.22" y1="133.85" x2="230.15" y2="133.85" gradientTransform="translate(7.26 -64.65) rotate(27.62)" xlink:href="#radial-gradient"/></defs><circle class="cls-2" cx="124.02" cy="118.46" r="91.43"/><g class="cls-3"><path class="cls-4" d="M19.52,103S124.81,122.7,230,100.33v22.19s-70.73,25.15-210.46,0Z"/></g><g class="cls-5"><path class="cls-4" d="M19.52,138.23S124.81,157.94,230,135.56v22.2s-70.73,25.15-210.46,0Z"/><path class="cls-4" d="M19.52,172.2S124.81,191.92,230,169.54v22.19s-70.73,25.15-210.46,0Z"/></g><g class="cls-6"><path class="cls-4" d="M19.52,68.61S124.81,88.32,230,66V88.14s-70.73,25.15-210.46,0Z"/><path class="cls-4" d="M19.52,34.21S124.81,53.92,230,31.54v22.2s-70.73,25.15-210.46,0Z"/></g><g class="cls-7"><g class="cls-8"><circle class="cls-9" cx="124.02" cy="118.46" r="91.43"/></g></g><circle class="cls-10" cx="158.6" cy="65.97" r="28.02"/><g class="cls-7"><g class="cls-11"><circle class="cls-9" cx="122.8" cy="119.57" r="91.43"/></g></g><g class="cls-7"><g class="cls-12"><circle class="cls-13" cx="121.32" cy="119.57" r="91.43"/></g></g><path class="cls-14" d="M124.12,209.48c-6.81.55,73.66-45.56,88.94-77.47C213.06,132,208.56,202.67,124.12,209.48Z"/></svg>