<svg xmlns="http://www.w3.org/2000/svg" xmlns:xlink="http://www.w3.org/1999/xlink" viewBox="0 0 980.2 1071.96"><defs><style>.cls-1{fill:url(#radial-gradient);}.cls-2{fill:#e55e8f;}.cls-3{fill:#c64e7f;}</style><radialGradient id="radial-gradient" cx="-6739.18" cy="-1626.88" r="401.4" gradientTransform="matrix(-0.85, -0.53, -0.53, 0.85, -6103.56, -1713.85)" gradientUnits="userSpaceOnUse"><stop offset="0" stop-color="#ffdc78"/><stop offset="1" stop-color="#ffbf4b"/></radialGradient></defs><g id="head"><path class="cls-1" d="M393.58,545.56c-57.14,46.33-112.53-106-187.64-36.12-38.22,35.57,84,59.32,116.23,96.6-39.79,1.15-85.57-10.78-123.22-2.12-25.7,5.91-54.6,24.12-47.8,53.69,22.81,99.16,249.91,66,151.34,88.7-39.93,9.19-80.72,14.65-120.65,23.84-15,3.45-33.17,5.58-30.29,18.1,11,47.83,224,13.23,229.51,12.59C376.51,805.56,68,1011.69,292.9,960,418.44,931.07,544.23,713.22,597.72,641.2,673,539.9,904,307.46,866.91,146.07c-5.64-24.5-71.68-68.84-173.54-42.43C465.82,162.65,476.5,478.34,393.58,545.56Z"/><path class="cls-2" d="M366.37,546.17C388.8,564.27,492,590.88,514,664.08s-27.42,135.59-25.34,133.11,52.2-20.64,87.77-29,66.15-18.45,49.38-37.16-6.55-35.64,17-43.44,84.79-14.48,70.33-58.22-8.06-60.11,46.92-153.63,106.54-111.33,58.06-149.33S542.23,245.35,516,260.8c-36.8,21.65-75,175.79-74.27,184.61,2.79,31.87-81,33.06-59.9,46.88S366.37,546.17,366.37,546.17Z"/><path class="cls-3" d="M623.29,613.85C637.7,625.06,660.87,654,682,676.34c-14.24,5.22-29.72,8.17-39.16,11.29-23.58,7.8-33.79,24.73-17,43.44,0,0-18.76,15.9-28.34-46.6S495.89,551.25,467,538.58,597.44,593.75,623.29,613.85Z"/><path class="cls-3" d="M564.65,490.53l1.37.29S565.54,490.73,564.65,490.53Z"/><path class="cls-3" d="M564.65,490.53c-12.72-2.65-111.08-22.85-124-14.56a163.14,163.14,0,0,1-21.31-5.76c12.8-5.57,23.4-13.13,22.38-24.8C486.52,473.1,554.25,488.31,564.65,490.53Z"/></g></svg>