<svg id="Layer_1" data-name="Layer 1" xmlns="http://www.w3.org/2000/svg" xmlns:xlink="http://www.w3.org/1999/xlink" viewBox="0 0 330.77 341.48"><defs><style>.cls-1{fill:none;}.cls-2{fill:#662d91;}.cls-3{fill:#262262;}.cls-4{fill:#92278f;}.cls-5{clip-path:url(#clip-path);}.cls-6{fill:#ec98d1;}.cls-7{clip-path:url(#clip-path-2);}.cls-8{fill:#ec65d1;}.cls-9{clip-path:url(#clip-path-3);}.cls-10{fill:#bcbec0;}.cls-11{fill:#fff;}.cls-12{opacity:0.58;}</style><clipPath id="clip-path"><path class="cls-1" d="M274.12,146.12s-73.47,35.13-79.46,144.8,44.27,94.54,44.27,94.54l91.84-96.62Z"/></clipPath><clipPath id="clip-path-2"><path class="cls-1" d="M79.45,147.37s74.13,33.72,82.2,143.26S119.18,386,119.18,386L25.53,291.13Z"/></clipPath><clipPath id="clip-path-3"><path class="cls-1" d="M147.26,93.05s16.65,103.08,38.19,112.84c51.61,23.38-4.15,39.93-4.15,39.93l-108-116.77,37.86-42.2Z"/></clipPath></defs><path class="cls-2" d="M70.06,186.84s96.78-74.41,103.22-154c0,0,42.09,8.94,33.43,71.27s-40.53,134.64-89.92,186.77C116.79,290.92,110.06,219,70.06,186.84Z"/><ellipse class="cls-3" cx="184.45" cy="97.54" rx="20.87" ry="63.33" transform="translate(-16.03 39.72) rotate(-11.78)"/><ellipse class="cls-3" cx="171.47" cy="137.28" rx="20.87" ry="63.33" transform="translate(-24.42 37.9) rotate(-11.78)"/><path class="cls-4" d="M285.94,186.13S180.16,113,173.72,33.43c0,0-33.09,7.68-24.43,70s40.53,134.64,89.92,186.77C239.21,290.21,245.94,218.26,285.94,186.13Z"/><g class="cls-5"><path class="cls-6" d="M286.06,186.21S180.27,113.06,173.83,33.51c0,0-33.08,7.68-24.43,70s40.53,134.64,89.93,186.77C239.33,290.29,246.06,218.34,286.06,186.21Z"/></g><g class="cls-7"><path class="cls-8" d="M68.28,187.67s104.38-75.14,109.31-154.8c0,0,33.22,7.05,25.75,69.53s-38,135.39-86.36,188.45C117,290.85,108.89,219,68.28,187.67Z"/></g><path class="cls-8" d="M86.82,183.32s-62.67,25.8-72,20.46C14.82,203.78,37.48,218.85,86.82,183.32Z"/><path class="cls-8" d="M108.32,188S52.24,226.09,42,222.77C42,222.77,67.28,232.89,108.32,188Z"/><path class="cls-8" d="M120,214.21s-56.08,38-66.31,34.74C53.66,249,78.93,259.06,120,214.21Z"/><path class="cls-8" d="M131.51,257.18s-56.07,38.05-66.3,34.73C65.21,291.91,90.47,302,131.51,257.18Z"/><path class="cls-8" d="M133.78,268.72s-49.86,45.9-60.46,44.13C73.32,312.85,99.8,319.13,133.78,268.72Z"/><path class="cls-6" d="M221.27,266.73s49.86,45.9,60.46,44.13C281.73,310.86,255.26,317.14,221.27,266.73Z"/><path class="cls-6" d="M213.84,239.9s49.87,45.9,60.47,44.12C274.31,284,247.83,290.31,213.84,239.9Z"/><path class="cls-6" d="M209.63,227.74s49.86,45.89,60.47,44.12C270.1,271.86,243.62,278.15,209.63,227.74Z"/><path class="cls-6" d="M244.08,175.84s65.19,18.52,73.86,12.16C317.94,188,297.13,205.54,244.08,175.84Z"/><path class="cls-6" d="M230.13,193.14s61.08,13.84,69.34,8.59C299.47,201.73,279.6,216.16,230.13,193.14Z"/><path class="cls-6" d="M219.05,225.62s57.54,35.81,67.62,32.09C286.67,257.71,261.83,268.82,219.05,225.62Z"/><path class="cls-6" d="M225.54,214.21s40.57,33.08,48.14,28.92C273.68,243.13,255,255.33,225.54,214.21Z"/><path class="cls-6" d="M223.91,207.07s57.54,35.8,67.63,32.08C291.54,239.15,266.7,250.26,223.91,207.07Z"/><path class="cls-6" d="M235.35,189.21s43.25,36.39,51.38,31.73C286.73,220.94,266.6,234.58,235.35,189.21Z"/><path class="cls-8" d="M124.9,244.23s-56.08,38-66.31,34.74C58.59,279,83.86,289.09,124.9,244.23Z"/><path class="cls-8" d="M131.51,226.37s-56.07,38.06-66.3,34.74C65.21,261.11,90.47,271.23,131.51,226.37Z"/><path class="cls-8" d="M124.9,196.35S68.82,234.4,58.59,231.09C58.59,231.09,83.86,241.2,124.9,196.35Z"/><path class="cls-8" d="M114,173.18s-56.08,38-66.31,34.73C47.66,207.91,72.93,218,114,173.18Z"/><g class="cls-9"><path class="cls-10" d="M125.5,135c1.12-1,42.61,21.61,55.8,54.73a109.75,109.75,0,0,1-10.49,22.17s-27-54.4-54.73-66.87A133.68,133.68,0,0,1,125.5,135Z"/></g><path class="cls-11" d="M222.27,131.49c-1-1.07-35.38,21.31-46.59,55.54,0,0,3.2,12.82,9.77,20.86,0,0,22.12-54.18,45.68-67.07C231.13,140.82,225.85,135.49,222.27,131.49Z"/></svg>